<svg xmlns="http://www.w3.org/2000/svg" width="71.319" height="71.319" viewBox="0 0 71.319 71.319"><g transform="translate(26.105 0) rotate(30)"><path d="M188.289,15.111l.679,8.927,8.927.679-8.927.679-.679,8.927-.679-8.927-8.927-.679,8.927-.679Z" transform="translate(-146.485 -12.388)" fill="#fff"/><path d="M38.219,193.171l.441,5.795,5.795.441-5.795.441-.441,5.795-.441-5.795-5.794-.441,5.794-.441Z" transform="translate(-26.221 -158.363)" fill="#fff"/><path d="M26.1,0,24.493,21.174l-6.259-2.94,2.94,6.259L0,26.1l21.174,1.611-2.94,6.259,6.259-2.94L26.1,52.209l1.611-21.174,6.259,2.94-2.94-6.259L52.209,26.1,31.035,24.493l2.94-6.259-6.259,2.94Z" transform="translate(0)" fill="#fff"/></g></svg>