<svg xmlns="http://www.w3.org/2000/svg" width="20" height="20" viewBox="0 0 20 20"><path d="M17.5 11.5a.5.5 0 0 1-.5-.5v-1c0-3.86-3.14-7-7-7a6.99 6.99 0 0 0-6.193 3.734.5.5 0 0 1-.884-.468A7.987 7.987 0 0 1 10 2c2.137 0 4.146.832 5.657 2.343a7.947 7.947 0 0 1 2.341 5.452l1.149-1.149a.5.5 0 0 1 .707.707l-2 2a.5.5 0 0 1-.354.146zM10 18a7.948 7.948 0 0 1-5.657-2.343 7.947 7.947 0 0 1-2.341-5.452L.853 11.354a.5.5 0 0 1-.707-.707l2-2A.499.499 0 0 1 3 9.001v1c0 3.86 3.14 7 7 7a6.99 6.99 0 0 0 6.193-3.734.5.5 0 0 1 .884.468A7.987 7.987 0 0 1 10 18.001z" fill="#A1A4AA"/></svg>