<?xml version="1.0" encoding="utf-8"?>
<!-- Generator: Adobe Illustrator 18.1.0, SVG Export Plug-In . SVG Version: 6.00 Build 0)  -->
<svg version="1.1" id="Слой_1" xmlns="http://www.w3.org/2000/svg" xmlns:xlink="http://www.w3.org/1999/xlink" x="0px" y="0px"
	 viewBox="0 0 800 600" enable-background="new 0 0 800 600" xml:space="preserve">
<g id="_x31_6">
	<g opacity="0.6">
		<g>
			
				<ellipse transform="matrix(-0.5849 0.8111 -0.8111 -0.5849 1003.1548 28.1027)" fill="#FFFFFF" cx="494.4" cy="270.7" rx="2" ry="3.8"/>
		</g>
		<g>
			<path fill="#FFFFFF" d="M494.4,267.6c0.5,0.2,1.1,0.5,1.6,0.9l0,0l0,0l0,0l0.1,0l0,0c0.9,0.7,1.6,1.5,2,2.3
				c0.5,0.9,0.5,1.9,0,2.6l0,0.1l0,0c-0.5,0.6-1.4,0.9-2.4,0.8c-0.4,0-0.8-0.2-1.2-0.3v-1.6c0.5,0.3,1,0.4,1.4,0.5
				c0.5,0.1,0.9,0,1.1-0.2l0,0c0.2-0.2,0.1-0.6-0.1-1.1c-0.3-0.6-0.8-1.2-1.6-1.8l0,0l0,0l-0.1,0l0,0c-0.2-0.2-0.5-0.3-0.7-0.4
				L494.4,267.6L494.4,267.6z M490.8,268c0.5-0.6,1.4-0.9,2.4-0.8c0.4,0,0.8,0.2,1.2,0.3v1.6c-0.5-0.3-1-0.4-1.4-0.5
				c-0.5-0.1-0.9,0-1.1,0.2l0,0c-0.2,0.2-0.1,0.6,0.1,1.1c0.3,0.6,0.8,1.2,1.6,1.8l0,0c0.3,0.2,0.5,0.3,0.8,0.5v1.6
				c-0.5-0.2-1-0.4-1.4-0.7h0l-0.2-0.1c-0.9-0.7-1.7-1.5-2-2.3C490.3,269.7,490.2,268.8,490.8,268L490.8,268L490.8,268z"/>
		</g>
		<g>
			
				<ellipse transform="matrix(-0.7046 0.7096 -0.7096 -0.7046 1037.4851 95.1431)" fill="#FFFFFF" cx="498.9" cy="263.5" rx="2" ry="3.8"/>
		</g>
		<g>
			<g>
				<path fill="#FFFFFF" d="M498.7,260.1c0.7,0.3,1.4,0.8,2.1,1.4l-2.1-0.5V260.1L498.7,260.1z M498.7,266.8
					c0.3,0.2,0.6,0.3,0.9,0.4h0c1,0.3,1.9,0.2,2.5-0.4c0.6-0.6,0.7-1.5,0.4-2.5c-0.3-0.9-0.8-1.8-1.7-2.6l-0.1-0.1l-2.1-0.5v0.7
					c0.4,0.2,0.8,0.5,1.1,0.9l0.1,0.1l0,0c0.6,0.6,1,1.3,1.2,1.9c0.1,0.5,0.1,0.9-0.1,1.1c-0.2,0.2-0.6,0.2-1.1,0.1l0,0
					c-0.4-0.1-0.9-0.3-1.3-0.7L498.7,266.8L498.7,266.8z M495.7,260.3c0.6-0.6,1.5-0.7,2.5-0.4h0c0.2,0,0.3,0.1,0.5,0.2v0.9
					L495.7,260.3L495.7,260.3z M498.7,261l-3-0.7c-0.6,0.6-0.7,1.5-0.4,2.5c0.3,0.9,0.8,1.8,1.7,2.6l0,0l0,0h0
					c0.6,0.5,1.2,1,1.7,1.3v-1.7c-0.2-0.2-0.5-0.4-0.7-0.6v0l0,0h0c-0.6-0.6-1.1-1.4-1.3-2c-0.1-0.5-0.1-0.9,0-1.1
					c0.2-0.2,0.6-0.2,1.1-0.1l0,0c0.3,0.1,0.6,0.2,0.9,0.4L498.7,261L498.7,261z"/>
			</g>
		</g>
		<g>
			
				<ellipse transform="matrix(-0.8603 0.5097 -0.5097 -0.8603 1071.496 224.0612)" fill="#FFFFFF" cx="505.1" cy="258.8" rx="2" ry="3.8"/>
		</g>
		<g>
			<path fill="#FFFFFF" d="M505.1,255c0.1,0,0.2,0.1,0.3,0.1c0.8,0.5,1.5,1.2,2.1,2.2l0,0l0,0c0.6,1,0.9,2.1,0.9,2.9
				c0,1-0.3,1.9-1,2.3l-0.2,0.1h0c-0.6,0.3-1.4,0.2-2.1-0.2v-1.8c0.2,0.1,0.3,0.3,0.5,0.4c0.4,0.3,0.8,0.3,1.1,0.2l0,0
				c0.2-0.1,0.3-0.5,0.3-1c0-0.7-0.3-1.5-0.7-2.3l0,0l0,0c-0.3-0.6-0.7-1-1.1-1.4L505.1,255L505.1,255z M502.8,254.9
				c0.7-0.4,1.5-0.3,2.3,0.1v1.8c-0.2-0.1-0.3-0.3-0.5-0.4c-0.4-0.3-0.8-0.3-1.1-0.2c-0.2,0.1-0.3,0.5-0.3,1c0,0.7,0.3,1.5,0.7,2.3
				c0.3,0.6,0.7,1,1.1,1.4v1.8c-0.1,0-0.2-0.1-0.3-0.1c-0.8-0.5-1.5-1.2-2.1-2.2s-0.9-2.1-0.9-2.9
				C501.7,256.2,502,255.4,502.8,254.9z"/>
		</g>
		<g>
			
				<ellipse transform="matrix(-0.9244 0.3815 -0.3815 -0.9244 1082.8281 296.9487)" fill="#FFFFFF" cx="512" cy="255.8" rx="2" ry="3.8"/>
		</g>
		<g>
			<path fill="#FFFFFF" d="M512,251.7c0.3,0.1,0.5,0.3,0.8,0.5c0.7,0.6,1.3,1.4,1.8,2.5c0.4,1.1,0.6,2.2,0.5,3
				c-0.1,1-0.6,1.8-1.4,2.2c-0.5,0.2-1.1,0.2-1.7-0.1v-1.8l0.1,0.1c0.4,0.3,0.8,0.5,1,0.4c0.3-0.1,0.4-0.5,0.5-1
				c0.1-0.7-0.1-1.5-0.4-2.3c-0.3-0.8-0.8-1.4-1.2-1.8L512,251.7L512,251.7z M510.3,251.7c0.5-0.2,1.1-0.2,1.7,0.1v1.8l-0.1-0.1
				c-0.4-0.3-0.8-0.5-1-0.4s-0.4,0.5-0.5,1c-0.1,0.7,0.1,1.5,0.4,2.3l0,0c0.3,0.8,0.7,1.4,1.2,1.8v1.8c-0.3-0.1-0.5-0.3-0.8-0.5
				c-0.7-0.6-1.3-1.5-1.8-2.5l-0.1-0.1v0c-0.4-1-0.5-2.1-0.5-2.9C509,252.8,509.5,252,510.3,251.7z"/>
		</g>
		<g>
			
				<ellipse transform="matrix(-0.9986 5.369765e-002 -5.369765e-002 -0.9986 1054.4587 478.8801)" fill="#FFFFFF" cx="520.8" cy="253.6" rx="2" ry="3.8"/>
		</g>
		<g>
			<path fill="#FFFFFF" d="M520.8,249.1c0.8,0.1,1.4,0.6,1.9,1.4c0.5,0.8,0.8,1.8,0.8,3c0.1,1.2-0.1,2.2-0.5,3
				c-0.4,0.9-1.2,1.6-2,1.6c-0.1,0-0.2,0-0.2,0v-1.5c0.1,0,0.1,0,0.2,0c0.3,0,0.5-0.3,0.8-0.8c0.3-0.6,0.4-1.4,0.4-2.3
				c0-0.9-0.3-1.7-0.6-2.3c-0.2-0.3-0.4-0.6-0.7-0.7L520.8,249.1L520.8,249.1z M520.5,249.1c0.1,0,0.2,0,0.2,0v1.5
				c-0.1,0-0.1,0-0.2,0c-0.3,0-0.5,0.3-0.8,0.8c-0.3,0.6-0.4,1.4-0.4,2.3c0,0.9,0.3,1.7,0.6,2.3c0.2,0.3,0.4,0.6,0.7,0.7v1.5
				c-0.8-0.1-1.4-0.6-1.9-1.4c-0.5-0.8-0.8-1.8-0.8-3c-0.1-1.2,0.1-2.2,0.5-3C519,249.8,519.7,249.2,520.5,249.1z"/>
		</g>
		<g>
			
				<ellipse transform="matrix(-0.9986 5.359789e-002 -5.359789e-002 -0.9986 1075.1289 477.7498)" fill="#FFFFFF" cx="531.2" cy="253.3" rx="2" ry="3.8"/>
		</g>
		<g>
			<path fill="#FFFFFF" d="M531.1,248.8c0.8,0.1,1.4,0.6,1.9,1.4c0.5,0.8,0.8,1.8,0.8,3c0.1,1.2-0.1,2.2-0.5,3
				c-0.4,0.9-1.2,1.6-2,1.6c-0.1,0-0.2,0-0.2,0v-1.5c0.1,0,0.1,0,0.2,0c0.3,0,0.5-0.3,0.8-0.8c0.3-0.6,0.4-1.4,0.4-2.3
				c0-0.9-0.3-1.7-0.6-2.3c-0.2-0.3-0.4-0.6-0.7-0.7V248.8L531.1,248.8z M530.9,248.8c0.1,0,0.2,0,0.2,0v1.5c-0.1,0-0.1,0-0.2,0
				c-0.3,0-0.5,0.3-0.8,0.8c-0.3,0.6-0.4,1.4-0.4,2.3c0,0.9,0.3,1.7,0.6,2.3c0.2,0.3,0.4,0.6,0.7,0.7v1.5c-0.8-0.1-1.4-0.6-1.9-1.4
				c-0.5-0.8-0.8-1.8-0.8-3c-0.1-1.2,0.1-2.2,0.5-3C529.3,249.5,530,248.9,530.9,248.8z"/>
		</g>
		<g>
			
				<ellipse transform="matrix(-0.9432 -0.3322 0.3322 -0.9432 964.9299 675.9561)" fill="#FFFFFF" cx="540.2" cy="255.5" rx="2" ry="3.8"/>
		</g>
		<g>
			<path fill="#FFFFFF" d="M541.8,251.3c0.8,0.3,1.3,1.1,1.5,2.1c0.1,0.9,0,2-0.4,3.1c-0.4,1.1-1,2-1.6,2.6c-0.3,0.3-0.6,0.5-1,0.6
				v-1.7c0.5-0.4,0.9-1.1,1.2-2c0.3-0.9,0.4-1.7,0.3-2.4c-0.1-0.5-0.3-0.9-0.5-0.9l0,0c-0.3-0.1-0.6,0.1-1,0.4l0,0v-1.7
				C540.8,251.1,541.3,251.1,541.8,251.3L541.8,251.3L541.8,251.3z M540.3,259.7c-0.5,0.2-1,0.2-1.5,0.1c-0.8-0.3-1.3-1.1-1.5-2.1
				c-0.1-0.9,0-2,0.4-3.1v0c0.4-1.1,1-2,1.6-2.6c0.3-0.3,0.6-0.5,1-0.6v1.7c-0.5,0.4-0.9,1.1-1.2,2h0c-0.3,0.9-0.4,1.7-0.3,2.4
				c0.1,0.5,0.3,0.9,0.5,0.9c0.3,0.1,0.6-0.1,1-0.4l0,0L540.3,259.7L540.3,259.7z"/>
		</g>
		<g>
			
				<ellipse transform="matrix(-0.7922 -0.6102 0.6102 -0.7922 825.0149 801.0131)" fill="#FFFFFF" cx="548.9" cy="260.1" rx="2" ry="3.8"/>
		</g>
		<g>
			<path fill="#FFFFFF" d="M551.6,256.5c0.7,0.5,0.9,1.4,0.7,2.4c-0.1,0.9-0.6,1.9-1.3,2.8c-0.7,0.9-1.4,1.5-2.2,1.9v-1.7
				c0.4-0.3,0.7-0.6,1-1.1c0.6-0.7,0.9-1.5,1-2.1c0.1-0.5,0-0.9-0.2-1.1c-0.2-0.2-0.6-0.1-1.1,0.1c-0.3,0.1-0.5,0.3-0.8,0.5v-1.7
				l0.2-0.1C550,256,551,256,551.6,256.5z M548.9,263.6l-0.2,0.1c-1,0.4-1.9,0.4-2.6-0.1c-0.7-0.5-0.9-1.4-0.7-2.4
				c0.1-0.8,0.5-1.7,1.1-2.6v0l0.2-0.2c0.7-0.9,1.4-1.5,2.2-1.9v1.7c-0.3,0.3-0.7,0.6-1,1l0,0.1c-0.6,0.7-0.9,1.5-1,2.1
				c-0.1,0.5,0,0.9,0.2,1.1c0.2,0.2,0.6,0.1,1.1-0.1c0.3-0.1,0.5-0.3,0.8-0.5L548.9,263.6L548.9,263.6z"/>
		</g>
		<g>
			
				<ellipse transform="matrix(-0.5533 -0.833 0.833 -0.5533 639.5052 877.2874)" fill="#FFFFFF" cx="555" cy="267.2" rx="2" ry="3.8"/>
		</g>
		<g>
			<path fill="#FFFFFF" d="M558.7,264.7c0.5,0.7,0.4,1.6-0.1,2.6h0c-0.4,0.8-1.2,1.6-2.1,2.2v0h0h0l-0.2,0.1h0
				c-0.4,0.3-0.9,0.5-1.3,0.7v-1.6c0.2-0.1,0.5-0.3,0.7-0.4v0h0l0.1-0.1c0.7-0.5,1.2-1.1,1.5-1.6v0c0.2-0.4,0.3-0.8,0.2-1.1
				c-0.1-0.2-0.5-0.3-1-0.3h0c-0.5,0-1,0.2-1.5,0.4V264c0.5-0.2,0.9-0.3,1.4-0.3C557.4,263.6,558.3,263.9,558.7,264.7z M555,270.2
				c-0.5,0.2-0.9,0.3-1.4,0.3c-1,0.1-1.9-0.2-2.4-0.9c-0.5-0.7-0.4-1.6,0.1-2.6v0c0.4-0.8,1.2-1.6,2.1-2.2l0,0h0
				c0.5-0.3,1-0.6,1.5-0.8v1.6c-0.2,0.1-0.5,0.3-0.7,0.4l0,0h0c-0.7,0.5-1.3,1.1-1.6,1.7l0,0c-0.2,0.4-0.3,0.8-0.2,1.1
				c0.1,0.2,0.5,0.3,1,0.3c0.5,0,1-0.2,1.5-0.4L555,270.2L555,270.2z"/>
		</g>
		<g>
			
				<ellipse transform="matrix(-0.2276 -0.9738 0.9738 -0.2276 418.9532 880.4148)" fill="#FFFFFF" cx="558.7" cy="274" rx="2" ry="3.8"/>
		</g>
		<g>
			<path fill="#FFFFFF" d="M563,273c0.2,0.8-0.2,1.7-1,2.4c-0.7,0.6-1.6,1.1-2.8,1.4c-0.2,0-0.4,0.1-0.6,0.1v-1.5
				c0.1,0,0.2,0,0.3-0.1c0.9-0.2,1.6-0.6,2.1-1c0.4-0.3,0.6-0.7,0.5-0.9c-0.1-0.3-0.4-0.5-0.9-0.6c-0.6-0.2-1.3-0.2-2.1,0v-1.5
				c0.9-0.1,1.8-0.1,2.5,0.1C562.1,271.6,562.8,272.2,563,273z M558.6,276.9c-0.9,0.1-1.8,0.1-2.5-0.1c-1-0.3-1.7-0.9-1.9-1.7
				c-0.2-0.8,0.2-1.7,1-2.4c0.7-0.6,1.6-1.1,2.8-1.4c0.2,0,0.4-0.1,0.6-0.1v1.5c-0.1,0-0.2,0-0.3,0.1c-0.9,0.2-1.6,0.6-2.1,1
				c-0.4,0.3-0.6,0.7-0.5,0.9c0.1,0.3,0.4,0.5,0.9,0.6c0.6,0.2,1.3,0.2,2.1,0L558.6,276.9L558.6,276.9z"/>
		</g>
		<g>
			
				<ellipse transform="matrix(4.799900e-003 -1 1 4.799900e-003 275.1372 842.17)" fill="#FFFFFF" cx="560.7" cy="282.9" rx="2" ry="3.8"/>
		</g>
		<g>
			<path fill="#FFFFFF" d="M565.2,282.9c0,0.9-0.6,1.6-1.5,2.1c-0.8,0.4-1.8,0.7-3,0.7v-1.5c0.9,0,1.7-0.2,2.3-0.5
				c0.4-0.2,0.7-0.5,0.7-0.8c0-0.3-0.3-0.6-0.7-0.8c-0.6-0.3-1.4-0.5-2.3-0.5v0l0,0l0,0h0v-1.5h0v0l0,0l0,0c1.2,0,2.2,0.3,3,0.7
				C564.6,281.3,565.2,282,565.2,282.9z M560.7,285.6L560.7,285.6L560.7,285.6L560.7,285.6L560.7,285.6c-1.2,0-2.2-0.3-3-0.7
				c-0.9-0.5-1.5-1.2-1.5-2.1c0-0.9,0.6-1.6,1.5-2.1c0.8-0.4,1.8-0.7,3-0.7v1.5c-0.9,0-1.7,0.2-2.3,0.5c-0.4,0.2-0.7,0.5-0.7,0.8
				c0,0.3,0.3,0.6,0.7,0.8c0.6,0.3,1.4,0.5,2.3,0.5v0l0,0l0,0h0L560.7,285.6L560.7,285.6z"/>
		</g>
		<g>
			
				<ellipse transform="matrix(0.1876 -0.9822 0.9822 0.1876 169.8824 786.1953)" fill="#FFFFFF" cx="560.2" cy="290.4" rx="2" ry="3.8"/>
		</g>
		<g>
			<path fill="#FFFFFF" d="M564.6,291.2c-0.2,0.8-0.9,1.5-1.9,1.8c-0.7,0.2-1.6,0.3-2.6,0.2v-1.5c0.8,0.1,1.6,0.1,2.1-0.1
				c0.5-0.2,0.8-0.4,0.9-0.7l0,0c0-0.3-0.2-0.6-0.6-0.9c-0.5-0.4-1.3-0.8-2.2-0.9h0l-0.2,0v-1.5c0.2,0,0.3,0,0.5,0.1l0,0
				c1.1,0.2,2.1,0.7,2.8,1.2C564.4,289.5,564.8,290.4,564.6,291.2L564.6,291.2z M560.2,293.2c-0.1,0-0.3,0-0.4-0.1h0l0,0l-0.1,0l0,0
				c-1.1-0.2-2.1-0.7-2.8-1.2c-0.8-0.7-1.2-1.5-1.1-2.3v0c0.2-0.8,0.9-1.5,1.9-1.8c0.7-0.2,1.6-0.3,2.6-0.2v1.5
				c-0.8-0.1-1.6-0.1-2.1,0.1c-0.5,0.2-0.8,0.4-0.9,0.6l0,0c0,0.3,0.2,0.6,0.6,0.9c0.5,0.4,1.2,0.7,2.1,0.9h0l0.1,0l0.2,0
				L560.2,293.2L560.2,293.2z"/>
		</g>
		<g>
			
				<ellipse transform="matrix(0.1876 -0.9822 0.9822 0.1876 159.127 788.6058)" fill="#FFFFFF" cx="556.3" cy="298.1" rx="2" ry="3.8"/>
		</g>
		<g>
			<path fill="#FFFFFF" d="M560.7,298.9c-0.2,0.8-0.9,1.5-1.9,1.8c-0.7,0.2-1.6,0.3-2.6,0.2v-1.5c0.8,0.1,1.6,0.1,2.1-0.1
				c0.5-0.2,0.8-0.4,0.9-0.6c0.1-0.3-0.2-0.6-0.6-0.9v0c-0.5-0.4-1.3-0.8-2.2-0.9l-0.2,0v-1.5c0.2,0,0.3,0,0.5,0.1
				c1.1,0.2,2.1,0.7,2.8,1.2h0C560.4,297.3,560.9,298.1,560.7,298.9z M556.3,300.9c-0.2,0-0.3,0-0.5-0.1c-1.1-0.2-2.1-0.7-2.8-1.2
				c-0.8-0.7-1.2-1.5-1.1-2.3v0c0.2-0.8,0.9-1.5,1.9-1.8c0.7-0.2,1.6-0.3,2.6-0.2v1.5c-0.8-0.1-1.6-0.1-2.1,0.1
				c-0.5,0.2-0.8,0.4-0.9,0.7l0,0c0,0.3,0.2,0.6,0.6,0.9c0.5,0.4,1.3,0.8,2.2,0.9l0.2,0V300.9z"/>
		</g>
		<g>
			
				<ellipse transform="matrix(0.4599 -0.888 0.888 0.4599 26.4927 652.0027)" fill="#FFFFFF" cx="549.2" cy="304.2" rx="2" ry="3.8"/>
		</g>
		<g>
			<path fill="#FFFFFF" d="M551.9,305.6L551.9,305.6c0.1-0.2,0-0.6-0.3-1c-0.4-0.5-1-1.1-1.8-1.5l-0.1,0l0,0
				c-0.2-0.1-0.4-0.2-0.6-0.2v-1.5c0.4,0.1,0.9,0.3,1.3,0.5l0.1,0l0,0c1,0.5,1.8,1.2,2.3,2c0.5,0.8,0.7,1.6,0.4,2.4v0.2l-0.2,0.2
				c-0.4,0.7-1.2,1-2.2,1c-0.5,0-1.1-0.1-1.7-0.3v-1.5c0.6,0.2,1.2,0.3,1.7,0.3C551.4,306,551.8,305.9,551.9,305.6L551.9,305.6z
				 M549.2,302.8c-0.6-0.2-1.2-0.3-1.7-0.3c-0.5,0-0.9,0.1-1,0.4c-0.1,0.2,0,0.6,0.3,1c0.4,0.5,1,1.1,1.8,1.5l0,0l0,0l0,0l0,0l0,0
				l0,0l0,0c0.2,0.1,0.4,0.2,0.6,0.3v1.5c-0.4-0.1-0.8-0.3-1.3-0.5l0,0l0,0l0,0c-1-0.5-1.8-1.3-2.3-2c-0.6-0.9-0.8-1.8-0.4-2.5
				c0.4-0.8,1.2-1.2,2.3-1.2c0.5,0,1.1,0.1,1.7,0.3L549.2,302.8L549.2,302.8z"/>
		</g>
		<g>
			
				<ellipse transform="matrix(0.6247 -0.7809 0.7809 0.6247 -39.1728 539.2051)" fill="#FFFFFF" cx="541.3" cy="310.4" rx="2" ry="3.8"/>
		</g>
		<g>
			<path fill="#FFFFFF" d="M545,312.9L545,312.9l-0.2,0.2c-0.5,0.7-1.4,0.9-2.5,0.7c-0.3-0.1-0.7-0.2-1-0.3v-1.6
				c0.5,0.3,0.9,0.4,1.3,0.5c0.5,0.1,0.9,0,1.1-0.2h0c0.2-0.2,0.1-0.6-0.1-1.1c-0.3-0.6-0.7-1.2-1.4-1.8l-0.1,0
				c-0.3-0.2-0.5-0.4-0.8-0.6v-1.6c0.6,0.2,1.1,0.6,1.7,1h0l0.1,0c0.9,0.7,1.6,1.6,1.9,2.4C545.4,311.4,545.4,312.3,545,312.9z
				 M541.4,313.5c-0.6-0.2-1.2-0.6-1.7-1l0,0l0,0c-0.9-0.7-1.5-1.6-1.9-2.4c-0.4-1-0.4-1.9,0.1-2.6s1.4-0.9,2.5-0.7
				c0.3,0.1,0.7,0.2,1,0.3v1.6c-0.5-0.3-0.9-0.4-1.3-0.5c-0.5-0.1-0.9,0-1.1,0.2c-0.2,0.2-0.1,0.6,0.1,1.1c0.3,0.6,0.8,1.3,1.5,1.8
				l0,0v0c0.3,0.2,0.5,0.4,0.8,0.6L541.4,313.5L541.4,313.5z"/>
		</g>
		<g>
			<path fill="#FFFFFF" d="M516,299.3c5.3-5.9,9.9-12.6,13.7-19.5c3.8-6.9,6.7-14.1,8.4-21l1.4,0.4c-1.8,7-4.7,14.3-8.6,21.3
				c-3.8,7-8.6,13.8-13.9,19.8L516,299.3z"/>
		</g>
		<g>
			<path fill="#FFFFFF" d="M515,297.5c5.6-3.9,9-10.8,11.3-18.2c2.3-7.6,3.4-15.8,4.3-22.3l1.5,0.2c-0.8,6.6-2,14.8-4.3,22.5
				c-2.4,7.8-6,14.9-11.9,19L515,297.5z"/>
		</g>
		<g>
			<path fill="#FFFFFF" d="M516.2,296.6c3.9-5.7,5.9-11.8,6.5-18c0.8-7.1-0.3-14.3-2.4-21.1l1.4-0.4c2.1,6.9,3.3,14.3,2.5,21.6
				c-0.7,6.3-2.7,12.7-6.7,18.6L516.2,296.6z"/>
		</g>
		<g>
			<path fill="#FFFFFF" d="M514,258.9c3.4,5.8,5.6,11.6,6.4,17.6c0.8,6,0.3,12.1-1.6,18.5l-1.4-0.4c1.8-6.1,2.3-12.1,1.5-17.9
				c-0.8-5.8-2.9-11.5-6.2-17.1L514,258.9z"/>
		</g>
		<g>
			<path fill="#FFFFFF" d="M507.5,261.6c4.3,4.7,7.7,10,9.8,15.7c2,5.2,2.8,10.6,2,16l-1.5-0.2c0.7-5.2-0.1-10.4-2-15.3
				c-2-5.4-5.4-10.6-9.5-15.2L507.5,261.6z"/>
		</g>
		<g>
			<path fill="#FFFFFF" d="M502.1,265.6c5,4.2,9.3,8.6,12.2,13.5c2.9,5,4.5,10.4,4.2,16.5l-1.5-0.1c0.3-5.8-1.2-11-4-15.7
				c-2.8-4.8-7-9.1-11.9-13.2L502.1,265.6z"/>
		</g>
		<g>
			<path fill="#FFFFFF" d="M497.7,272.3c6.2,2.1,11.1,5.2,14.4,9.4c3.3,4.1,5.2,9.2,5.4,15.3l-1.5,0.1c-0.3-5.8-2-10.6-5.1-14.5
				c-3.2-3.9-7.8-6.9-13.7-8.9L497.7,272.3z"/>
		</g>
		<g>
			
				<rect x="511.5" y="279" transform="matrix(-0.6315 0.7754 -0.7754 -0.6315 1086.5173 43.1028)" fill="#FFFFFF" width="43" height="1.5"/>
		</g>
		<g>
			
				<rect x="516.5" y="281.1" transform="matrix(-0.7738 0.6334 -0.6334 -0.7738 1130.0172 160.1289)" fill="#FFFFFF" width="39.8" height="1.5"/>
		</g>
		<g>
			<path fill="#FFFFFF" d="M555.8,276.4c-10.7,2.7-20.4,9.7-28.7,15.5c-2.6,1.8-5,3.6-7.3,5l-0.8-1.2c2.2-1.5,4.7-3.2,7.2-5
				c8.4-6,18.3-13,29.2-15.8L555.8,276.4z"/>
		</g>
		<g>
			<path fill="#FFFFFF" d="M516.7,298.5c7.2-5.6,13.1-9.5,19.3-12.1c6.2-2.6,12.6-3.9,20.9-4.3l0.1,1.5c-8.1,0.3-14.4,1.6-20.4,4.2
				c-6,2.6-11.8,6.4-18.9,11.9L516.7,298.5z"/>
		</g>
		<g>
			<path fill="#FFFFFF" d="M519,295.8c6.9-4,13.8-5.8,20.3-6.6c6.4-0.8,12.3-0.5,17.2-0.2l-0.1,1.5c-4.8-0.3-10.6-0.6-17,0.2
				c-6.3,0.8-13,2.6-19.7,6.4L519,295.8z"/>
		</g>
		<g>
			<path fill="#FFFFFF" d="M552.3,298c-4.7-1.9-11.7-3.8-19.1-3.4c-4.5,0.2-9,1.2-13.2,3.5c4.1,0,7.5,0.9,10.3,2.3
				c3.5,1.7,6.3,4.3,8.7,7l-1.1,0.9c-2.2-2.6-4.9-5-8.2-6.7c-3.3-1.6-7.3-2.5-12.4-2l-2.8,0.3l2.3-1.6c5-3.5,10.8-5,16.4-5.3
				c7.6-0.4,14.9,1.5,19.7,3.5L552.3,298z"/>
		</g>
		<g>
			<path fill="#FFFFFF" d="M518.9,298.3c4-2,8.9-2.4,13.5-1.8c5.6,0.7,10.9,3,13.9,5.4l-0.9,1.1c-2.8-2.3-7.8-4.4-13.2-5.1
				c-4.4-0.6-8.9-0.2-12.7,1.7L518.9,298.3z"/>
		</g>
		<g>
			<path fill="#D4D4D4" d="M496.3,348.4c3.9-9.1,4.1-16.5,0.9-22c1.6,14.3-8,13-11.9,19.5C479.1,354.3,491.1,360.5,496.3,348.4z"/>
		</g>
		<g>
			<path fill="#FFFFFF" d="M530.1,392.3l-40.6,21.9l18.8,31.4c12.9,17.5,25.7,23.7,42.4,28c32.8,8.6,64.3,6.8,92.7,15.4
				c19.2,12.7,54.7,14,38.6,3.1C631.4,458.8,624.1,392.5,530.1,392.3z"/>
		</g>
		<g>
			<path fill="#FFFFFF" d="M553.3,409.6c-44.7-8.7-55.1,19-26.5,42.1c34.9,37,71.6,23.3,107.4,35c11.5,4.3,22.7,9.5,21.9,4.8
				c-15.8-33.4-57.9-86.4-92.9-76.9C559.9,412.9,556.6,411.2,553.3,409.6z"/>
		</g>
		<g>
			<path fill="#FFFFFF" d="M518.3,315.1l-21,11.3c9,25.8-20.6,50.6-27.6,80.2c-1.4,14.4,11.7,20.5,17.6,30.8
				c2.9,12.1,12,20.9,8.8,36.3c7.2-15.9-4-24.3-5.9-36.5c4.6,11.5,12.3,16.3,13.9,34.4c0.3-10.9-0.9-20.1-5.3-26.6
				c6.2,7.6,9,16.6,13.3,26.2l-6-21.6l10.3,18.8c-1.1-8.3-3.3-13.5-8-22.9c7.2,5.8,12.7,12.7,17,21.6c-4.1-8.1-5.8-14.1-12.3-24.2
				c7.5,5.6,10.7,12.5,16,18.7c-4.5-11.6-13-19.5-19.5-29.2l20.4,20.3c-3.2-4.6-3.3-6.7-9.6-13.8l15.1,10.6
				c-7.3-9.9-18.6-18.2-21.8-29.7c6.3,8.1,13.9,8.9,20.9,13.3c-8-7.9-17.8-12.2-23.8-23.7c10.2,0.9,15.3,5.6,22.9,8.5
				c-7.7-4.1-10.6-9.4-23-12.2c14.8-9,24.2-7,36.3-10.5l-12.1-0.5c4.8-5.4,11.7-6.1,17.6-9.2c-18.9,2.4-28.9,11.1-43.4,16.6
				C468.7,397.4,515.8,346,518.3,315.1z"/>
		</g>
		<g>
			<path fill="#CCCCCC" d="M547.9,401.5c-44.3-10.4-55.8,16.8-28.1,41.1c33.4,38.3,70.7,26,106,39c11.3,4.7,17.6,7.2,17,2.5
				c-14.6-33.9-49.9-85.5-85.2-77.3C554.4,405.1,551.1,403.3,547.9,401.5z"/>
		</g>
		<g>
			<path fill="#FFFFFF" d="M633.5,465.4c-4.5-7.6-11.9-7.3-17.9-10.9c-0.2,2.8,7.4,11.5-0.7,8.5c-11-3.9-20.7-2.4-33-11.5
				c2.3,8.3,21.6,15.1,7.5,14.2c-11-2.4-22.7,0.4-32.9-7.1c3.8,6.1,14.6,9.4,10.8,12.2c19.5,4.3,39.3,3.9,58.5,11
				c11.3,4.7,17.6,7.2,17,2.5C640.3,478.3,637.1,471.9,633.5,465.4z"/>
		</g>
		<g>
			<path fill="#CFCFCF" d="M544.9,471.8l-20.3-9.7c6.5,14.2,17.5,28.8,17,47.2c-1,21.8-6.7,37.3-11.9,55c-2.8,4-4.3,6-10.7,6
				c-3.3,0.4-10.9-2.7-15.9-3.1c-5.2-0.4-7.7,1.8-3.9,5.3c-1.7,1-8.7,0-11.7,1.1c-3.6,1.2-2.7,4.5,0.7,5.5l20.1-0.6
				c-5.2,4.7,0.4,5.8,7.3,3.9c5-1.3,10.5-5.3,13.5-5.5c6.8-0.4,15.7,2,20.4-1.3c7.9-8.4-4-3.9-11.4-4c-3.3,0-5.1-2.1-5-4.8
				l14.8-49.6c5.6-5.3,1.9-10.9-0.6-13.5C545.8,494.5,541.1,479.8,544.9,471.8z"/>
		</g>
		<g>
			<path fill="#CFCFCF" d="M590.7,480.3l-26.7-3.8c20.7,7.8,43.2,23.9,49.2,32.8c-0.4,13.5-1.5,30.8-6.3,47.4
				c-4.5,5.2-10.3,11.5-18.2,9.4c-5.1-2.4-8.4,1.3-3.5,4.1c2.9,0.9,5.5,1.3,8.5,0.9l-12.3,6c-5.5,2.7-0.2,5.8,6,2.5
				c5.8-2.9,10.8-6.4,15.4-10.7c0.2,1.9-4.9,7.1-5.7,9.9c-0.7,2.6,2,3.2,6,1.3c6.2-10.6,8.6-22.5,18.5-31.7c2.2-5.8-0.3-6.5-3-4.2
				c-2.4,2-3.8,9.3-6.4,7.1c2.5-13.5,6.1-24.2,7.5-40.5c3.2-4.6,1.7-10-6-11.9C605.5,495.6,597.4,488.9,590.7,480.3z"/>
		</g>
		<g>
			<polygon fill="#ADADAD" points="499.2,571.5 512.6,571.7 514.5,572.5 508.7,573 493.3,573 			"/>
		</g>
		<g>
			<polygon fill="#ADADAD" points="506.1,578.5 515.5,575.8 518,576.1 506.4,580.8 			"/>
		</g>
		<g>
			<path fill="#E6E6E6" d="M508,289.3l-18,16.4l1.3,12.2c4.8,3.7,6.9,14.4,14.3,11c9.3-4,14.9-11.9,13.8-26.6
				C518.2,294.8,515.5,289.6,508,289.3z"/>
		</g>
		<g>
			<path fill="#FFFFFF" d="M496,303.6l-9.3,6.7l7.5,11c7,3.5,16.8,2.8,21.9-10.2c3-9.9-1-17.4-7.7-16.2
				C504.6,295.5,498.5,304.5,496,303.6z"/>
		</g>
		<g>
			<path fill="#B1B1B1" d="M503.2,303.4c-0.6,2.9-0.1,4.6,0.8,5.4c0.5,0.4,1.1,0.6,1.7,0.5c0.7-0.1,1.4-0.5,2-1.1
				c1.2-1.4,1.8-3.8,0.6-7.2c3.5-1.1,3.4,7.2,1.6,9.2c-1.1,1.2-2.4,1.9-3.8,2.1c-1.4,0.2-2.9-0.2-4-1.2
				C500.4,309.5,500.2,302.8,503.2,303.4z"/>
		</g>
		<g>
			<path fill="#CCCCCC" d="M483.2,285.8c7.6-8.1,18,1.4,26,3.6c-9.8,6-11.9,22.7-27,14.7C477.6,296.7,480.1,289.7,483.2,285.8z"/>
		</g>
		<g>
			<path fill="#999999" d="M498,304.5c-5.2-0.2-9.4,3.3-15.7-0.5c-7.9,5-30.5,8.9-23.6,11.2c11.3,1.2,25.8-2.3,33.8,3.5
				C490.1,309.4,496.2,309.2,498,304.5z"/>
		</g>
		<g>
			<path fill="#B3B3B3" d="M458.6,314.2l0.5,0c15-1.3,24.5-2.3,36.9-10.5c1.9-0.5,3.4-0.1,2.5,1.8c-13.1,8.6-31.3,11.2-40.7,9.7
				L458.6,314.2z"/>
		</g>
	</g>
</g>
</svg>
