<svg xmlns="http://www.w3.org/2000/svg" viewBox="0 0 635 102">
  <g fill="none" fill-rule="evenodd" transform="translate(0 -58)">
    <path fill="#FFFFFF" d="M68.5341717,63.3211382 L68.5341717,124.479675 C68.5341717,135.260217 65.3053904,143.875307 58.847731,150.325203 C52.3900716,156.7751 43.7915609,160 33.051941,160 C22.3586125,160 14.1767187,156.86724 8.50601422,150.601626 C2.83530972,144.336012 0,135.329327 0,123.581301 L0,63.3211382 L28.1913614,63.3211382 L28.1913614,123.512195 C28.1913614,129.271032 30.2513007,132.150407 34.3712411,132.150407 C38.3523071,132.150407 40.3428103,129.271032 40.3428103,123.512195 L40.3428103,63.3211382 L68.5341717,63.3211382 Z M145.470202,157.650407 L119.50082,157.650407 L119.50082,118.743902 C119.50082,114.781823 117.857498,112.800813 114.570804,112.800813 C111.330401,112.800813 109.710224,114.781823 109.710224,118.743902 L109.710224,157.650407 L83.740842,157.650407 L83.740842,119.227642 C83.740842,110.243858 86.7265967,102.67686 92.6981957,96.5264228 C98.6697948,90.3759855 105.983737,87.300813 114.640241,87.300813 C124.546614,87.300813 132.485481,90.871238 138.45708,98.0121951 C143.132518,103.586749 145.470202,111.349544 145.470202,121.300813 L145.470202,157.650407 Z M186.576818,63.3211382 L186.576818,157.650407 L160.607436,157.650407 L160.607436,63.3211382 L186.576818,63.3211382 Z M227.75287,88.7520325 L227.75287,157.650407 L201.783488,157.650407 L201.783488,88.7520325 L227.75287,88.7520325 Z M214.837616,58 C218.355768,58 221.399386,59.2323725 223.968562,61.6971545 C226.537738,64.1619364 227.822307,67.0758639 227.822307,70.4390244 C227.822307,74.0325383 226.607175,76.9810183 224.176873,79.2845528 C221.746571,81.5880874 218.633516,82.7398374 214.837616,82.7398374 C211.041716,82.7398374 207.928662,81.5880874 205.49836,79.2845528 C203.068058,76.9810183 201.852925,74.0325383 201.852925,70.4390244 C201.852925,67.0758639 203.137494,64.1619364 205.70667,61.6971545 C208.275847,59.2323725 211.319465,58 214.837616,58 Z M338.018589,157.650407 L312.049207,157.650407 L312.049207,120.471545 C312.049207,117.615162 311.748317,115.634152 311.146528,114.528455 C310.544739,113.422759 309.456906,112.869919 307.882996,112.869919 C304.966634,112.869919 303.508475,115.426804 303.508475,120.54065 L303.508475,157.650407 L277.539092,157.650407 L277.539092,120.471545 C277.539092,117.615162 277.22663,115.634152 276.601695,114.528455 C275.97676,113.422759 274.877354,112.869919 273.303445,112.869919 C270.433374,112.869919 268.99836,115.426804 268.99836,120.54065 L268.99836,157.650407 L243.028978,157.650407 L243.028978,115.219512 C243.028978,107.479636 245.644406,100.903144 250.875342,95.4898374 C256.106277,90.0765312 262.448113,87.3699187 269.901039,87.3699187 C277.585422,87.3699187 284.482747,90.5948187 290.59322,97.0447154 C297.398066,90.5948187 304.202809,87.3699187 311.007654,87.3699187 C319.664158,87.3699187 326.607774,90.5026787 331.83871,96.7682927 C335.95865,101.651786 338.018589,108.769601 338.018589,118.121951 L338.018589,157.650407 Z M395.859486,63.3211382 L421.828868,63.3211382 L421.828868,120.747967 C421.828868,131.298156 419.051422,139.890211 413.496446,146.52439 C410.302335,150.348258 406.24032,153.388878 401.310279,155.646341 C396.380238,157.903805 391.322971,159.03252 386.138327,159.03252 C375.81533,159.03252 367.112665,155.57727 360.030071,148.666667 C352.947477,141.756063 349.406233,133.279183 349.406233,123.235772 C349.406233,113.514857 352.924332,105.107082 359.960634,98.0121951 C366.996937,90.9173087 375.329276,87.3699187 384.9579,87.3699187 C386.485519,87.3699187 388.800057,87.5081287 391.901586,87.7845528 L391.901586,116.256098 C389.772178,114.597553 387.642803,113.768293 385.513395,113.768293 C382.82849,113.768293 380.525524,114.74728 378.604429,116.705285 C376.683333,118.663289 375.722799,121.024376 375.722799,123.788618 C375.722799,126.460718 376.718051,128.7527 378.708584,130.664634 C380.699117,132.576568 383.083092,133.53252 385.86058,133.53252 C392.526551,133.53252 395.859486,128.948555 395.859486,119.780488 L395.859486,63.3211382 Z M473.975943,131.804878 L473.975943,158.54878 C471.846536,158.917346 469.902323,159.101626 468.143248,159.101626 C457.727668,159.101626 449.048148,155.692446 442.104429,148.873984 C435.160709,142.055521 431.688901,133.509536 431.688901,123.235772 C431.688901,113.238432 435.195427,104.761552 442.208584,97.804878 C449.221741,90.8482037 457.750815,87.3699187 467.796063,87.3699187 C478.998598,87.3699187 487.828563,90.6293712 494.286222,97.148374 C500.743881,103.667377 503.972663,112.570404 503.972663,123.857724 L503.972663,157.650407 L478.00328,157.650407 L478.00328,125.723577 C478.00328,122.083993 477.112183,119.181583 475.329962,117.01626 C473.54774,114.850938 471.152193,113.768293 468.143248,113.768293 C465.412051,113.768293 463.051222,114.758798 461.060689,116.739837 C459.070156,118.720877 458.074904,121.070447 458.074904,123.788618 C458.074904,126.645001 458.977574,128.994571 460.782941,130.837398 C462.588309,132.680226 464.879702,133.601626 467.65719,133.601626 C469.925472,133.601626 472.031702,133.002716 473.975943,131.804878 Z M542.232367,63.3211382 L542.232367,89.7195122 L553.897758,89.7195122 L553.897758,117.01626 L542.232367,117.01626 C542.232367,122.498672 543.100319,126.276412 544.836249,128.349593 C546.572179,130.422775 549.75467,131.45935 554.383816,131.45935 L554.383816,158.617886 C553.041364,158.663957 552.046112,158.686992 551.398032,158.686992 C545.519016,158.686992 539.975696,157.327927 534.767906,154.609756 C529.560116,151.891585 525.382374,148.205985 522.234554,143.552846 C518.253488,137.609726 516.262985,129.731756 516.262985,119.918699 L516.262985,63.3211382 L542.232367,63.3211382 Z M634.722253,127.382114 L595.351558,127.382114 C594.749769,125.401074 594.448879,123.581309 594.448879,121.922764 C594.448879,119.61923 594.865496,117.3618 595.698742,115.150407 L608.891744,115.150407 C607.965915,110.03656 605.072742,107.479675 600.212138,107.479675 C596.971735,107.479675 594.333161,108.850257 592.296337,111.591463 C590.259512,114.33267 589.241115,117.845507 589.241115,122.130081 C589.241115,126.598938 590.224794,130.215433 592.192182,132.979675 C594.159569,135.743916 596.740279,137.126016 599.93439,137.126016 C602.526712,137.126016 605.026414,135.836056 607.43357,133.256098 L622.223619,150.947154 C615.326191,156.337425 607.665069,159.03252 599.240022,159.03252 C588.963317,159.03252 580.330088,155.600305 573.340077,148.735772 C566.350065,141.871239 562.855112,133.371324 562.855112,123.235772 C562.855112,113.146291 566.384783,104.623341 573.444232,97.6666667 C580.50368,90.7099923 589.171627,87.2317073 599.448332,87.2317073 C609.49358,87.2317073 617.930073,90.6293698 624.758065,97.4247967 C631.586056,104.220224 635,112.593446 635,122.544715 C635,123.558271 634.907418,125.170721 634.722253,127.382114 Z"/>
  </g>
</svg>
