<svg xmlns="http://www.w3.org/2000/svg" viewBox="0 0 52.019 46.023"><path d="M26.093 46.023L4.084 25.712a15.308 15.308 0 0 1-3.203-5.326A15.428 15.428 0 0 1 0 15.274C0 6.852 6.757 0 15.063 0A14.95 14.95 0 0 1 26.01 4.782 14.947 14.947 0 0 1 36.957 0c8.305 0 15.062 6.852 15.062 15.274 0 1.696-.287 3.389-.852 5.031a15.337 15.337 0 0 1-3.077 5.233l-.119.121-21.878 20.364zM6.754 23.074l19.329 17.83 19.306-17.969c.446-.504.849-1.05 1.199-1.624a11.633 11.633 0 0 0 1.705-6.038c0-6.339-5.034-11.347-11.284-11.347-3.773 0-7.339 1.748-9.454 4.924l-1.545 2.32-1.545-2.319c-2.116-3.177-5.683-4.925-9.456-4.925-6.25 0-11.283 5.008-11.283 11.347 0 1.293.224 2.586.665 3.846a11.574 11.574 0 0 0 2.363 3.955z" fill="#ff1744"/></svg>