<?xml version="1.0" encoding="UTF-8"?>
<svg viewBox="0 0 16 16" version="1.1" xmlns="http://www.w3.org/2000/svg" xmlns:xlink="http://www.w3.org/1999/xlink">
    <g id="Page-1" stroke="none" stroke-width="1" fill="none" fill-rule="evenodd">
        <g id="Me-profile" transform="translate(-26.000000, -300.000000)" fill="#2962FF">
            <g id="Group-10" transform="translate(-23.893333, 0.000000)">
                <g id="ACT-2" transform="translate(37.546667, 287.573333)">
                    <g id="Group">
                        <g id="fb_icon" transform="translate(12.800000, 12.800000)">
                            <path d="M15.36,2.56017067 C15.36,1.214976 14.145536,0 12.8,0 L2.56,0 C1.214464,0 0,1.214976 0,2.56017067 L0,12.7998293 C0,14.145024 1.214464,15.36 2.56017067,15.36 L7.68,15.36 L7.68,9.55733333 L5.80266667,9.55733333 L5.80266667,6.99733333 L7.68,6.99733333 L7.68,5.99995733 C7.68,4.279808 8.97160533,2.73066667 10.56,2.73066667 L12.6293333,2.73066667 L12.6293333,5.29066667 L10.56,5.29066667 C10.3335253,5.29066667 10.0693333,5.56561067 10.0693333,5.97742933 L10.0693333,6.99733333 L12.6293333,6.99733333 L12.6293333,9.55733333 L10.0693333,9.55733333 L10.0693333,15.36 L12.8,15.36 C14.145536,15.36 15.36,14.145024 15.36,12.7998293 L15.36,2.56017067 Z"></path>
                        </g>
                    </g>
                </g>
            </g>
        </g>
    </g>
</svg>