<svg viewBox="0 0 17 17" xmlns="http://www.w3.org/2000/svg"><path d="M14.51 2.49A8.444 8.444 0 0 0 8.5 0C6.23 0 4.095.884 2.49 2.49A8.444 8.444 0 0 0 0 8.5c0 2.27.884 4.405 2.49 6.01A8.444 8.444 0 0 0 8.5 17c2.27 0 4.405-.884 6.01-2.49A8.444 8.444 0 0 0 17 8.5c0-2.27-.884-4.405-2.49-6.01zm1.127 3.257c-.165-.298-.582-.44-1.126-.626-.584-.199-.79-.799-1.03-1.494-.207-.604-.42-1.227-.93-1.614a7.694 7.694 0 0 1 3.086 3.734zm-2.385 2.915c.065.576.131 1.172-.584 1.974-.193.217-.306.519-.425.838-.278.74-.54 1.44-1.655 1.45-.031-.037-.12-.178-.198-.623-.073-.41-.114-.94-.16-1.5-.067-.86-.145-1.836-.357-2.645C9.6 7.12 9.144 6.51 8.478 6.287a2.828 2.828 0 0 0-.908-.144c-.236 0-.45.025-.64.048-.146.017-.286.034-.403.034-.199 0-.424 0-.702-.636-.399-.914-.104-2.379 1.066-3.151.642-.424 1.085-.605 1.48-.605.317 0 .658.11 1.141.368a2.71 2.71 0 0 0 1.346.344c.13 0 .246-.007.36-.014.095-.006.184-.01.267-.01.187 0 .338.024.516.145.327.223.497.717.677 1.239.272.792.58 1.69 1.56 2.023.131.045.357.121.518.189-.139.142-.37.349-.597.551-.146.131-.312.279-.495.446-.53.484-.468 1.05-.412 1.55v-.002zM.851 8.435c.092.016.19.035.292.056.478.103.702.194.8.246a3.041 3.041 0 0 1-.197.302c-.21.298-.472.67-.372 1.079.067.276.01.614-.088.927A7.617 7.617 0 0 1 .85 8.498v-.065.002zM8.5 16.15a7.658 7.658 0 0 1-6.74-4.035c.222-.424.635-1.363.442-2.184.014-.082.154-.28.238-.4.23-.328.517-.734.305-1.165-.15-.303-.548-.507-1.331-.684-.182-.04-.36-.074-.51-.1C1.36 3.795 4.592.851 8.5.851a7.6 7.6 0 0 1 3.7.956 1.728 1.728 0 0 0-.715-.137c-.108 0-.215.006-.318.013a5.289 5.289 0 0 1-.31.012c-.241 0-.542-.029-.945-.244-.615-.327-1.076-.468-1.54-.468-.575 0-1.158.223-1.95.745a3.626 3.626 0 0 0-1.45 1.945c-.246.783-.22 1.584.074 2.256.346.792.802 1.146 1.48 1.146.168 0 .331-.02.504-.04.174-.02.353-.042.54-.042.23 0 .433.032.638.1.373.125.648.543.842 1.279.194.735.267 1.67.332 2.495.055.689.106 1.338.219 1.829.069.297.157.523.272.69.17.25.416.388.69.388.75 0 1.35-.242 1.783-.72.36-.397.544-.887.691-1.281.087-.233.177-.473.265-.572.966-1.085.867-1.98.794-2.633-.054-.48-.055-.65.14-.826.18-.164.343-.311.488-.44.308-.276.531-.475.688-.645.107-.117.358-.392.289-.735l-.002-.01c.291.809.45 1.68.45 2.588 0 4.219-3.431 7.65-7.65 7.65H8.5z" fill="#78909C" fill-rule="evenodd"/></svg>