<svg viewBox="0 0 15 18" xmlns="http://www.w3.org/2000/svg" xmlns:xlink="http://www.w3.org/1999/xlink"><defs><path id="a" d="M.056 17.943H15V0H.056v17.943z"/></defs><g fill="none" fill-rule="evenodd"><mask id="b" fill="#fff"><use xlink:href="#a"/></mask><path d="M1.406.947a.471.471 0 0 0-.468.474V16.58c0 .26.21.474.468.474h12.188a.473.473 0 0 0 .469-.474V1.42a.472.472 0 0 0-.47-.474H1.407zM13.594 18H1.406A1.415 1.415 0 0 1 0 16.579V1.42C0 .638.63 0 1.406 0h12.188C14.369 0 15 .638 15 1.421V16.58c0 .783-.63 1.421-1.406 1.421z" fill="#78909C" mask="url(#b)"/><path d="M9.844 3.79H3.28a.471.471 0 0 1-.469-.474c0-.262.21-.474.47-.474h6.562c.258 0 .469.212.469.474a.472.472 0 0 1-.47.473m1.877 1.895H3.28a.471.471 0 0 1-.469-.473c0-.262.21-.474.47-.474h8.437c.258 0 .469.212.469.474a.472.472 0 0 1-.47.473m.002 1.895H3.28a.471.471 0 0 1-.469-.474c0-.261.21-.473.47-.473h8.437c.258 0 .469.212.469.473a.472.472 0 0 1-.47.474M7.969 9.474H3.28A.472.472 0 0 1 2.812 9c0-.261.21-.474.47-.474h4.687c.258 0 .468.213.468.474 0 .26-.21.474-.468.474m3.75 3.789H3.28a.472.472 0 0 1-.469-.474c0-.26.21-.473.47-.473h8.437a.473.473 0 1 1 0 .947m-1.874 1.895H3.28a.472.472 0 0 1-.469-.474c0-.26.21-.473.47-.473h6.562a.473.473 0 1 1 0 .947" fill="#78909C"/></g></svg>