<svg viewBox="0 0 20 18" xmlns="http://www.w3.org/2000/svg" xmlns:xlink="http://www.w3.org/1999/xlink"><defs><path id="a" d="M8.53 16H.06V.999H17V16H8.53z"/></defs><g fill="none" fill-rule="evenodd"><path d="M7 13.502a.5.5 0 0 0 .5.497h11a.5.5 0 0 0 .5-.497c-.001-.035-.032-.896-.738-1.734C17.287 10.61 15.468 10 13 10c-2.468 0-4.287.612-5.261 1.768-.707.84-.738 1.699-.739 1.734zm11 1.497h.5c.827 0 1.5-.673 1.5-1.5 0-.048-.01-1.19-.924-2.315-.525-.646-1.241-1.158-2.129-1.522C15.876 9.224 14.548 9 13 9s-2.877.222-3.948.662c-.887.364-1.603.876-2.128 1.522C6.011 12.309 6 13.451 6 13.499c0 .827.673 1.5 1.5 1.5H8V15h10v-.001zm0 0H8V14h10v.999z" fill="#78909C"/><g transform="translate(0 -1)"><mask id="b" fill="#fff"><use xlink:href="#a"/></mask><path d="M13 1.999c-1.654 0-3 1.346-3 3s1.346 3 3 3 3-1.346 3-3-1.346-3-3-3zm0 7c-2.206 0-4-1.794-4-4s1.794-4 4-4 4 1.794 4 4-1.794 4-4 4zm-8.5 7h-3c-.827 0-1.5-.673-1.5-1.5 0-.037.008-.927.663-1.8.378-.505.894-.904 1.533-1.188.764-.34 1.708-.512 2.805-.512.179 0 .356.005.527.014a.5.5 0 0 1-.053 1A8.098 8.098 0 0 0 5.002 12c-3.894 0-3.997 2.379-4 2.503a.5.5 0 0 0 .5.497h3a.5.5 0 0 1 0 1l-.002-.001" fill="#78909C" mask="url(#b)"/></g><path d="M5 3.999c-1.103 0-2 .897-2 2s.897 2 2 2 2-.897 2-2-.897-2-2-2zm0 5c-1.654 0-3-1.346-3-3s1.346-3 3-3 3 1.346 3 3-1.346 3-3 3z" fill="#78909C"/><g transform="translate(9.5 11.499)" fill="#78909C"><rect x="3" width="1" height="6" rx="100"/><rect transform="rotate(-90 3.5 3)" x="3" width="1" height="6" rx="100"/></g></g></svg>