<svg viewBox="0 0 17 17" xmlns="http://www.w3.org/2000/svg"><g fill="#78909C" fill-rule="evenodd"><path d="M8.5 17a8.446 8.446 0 0 1-6.01-2.49A8.44 8.44 0 0 1 0 8.5c0-2.27.884-4.404 2.49-6.01A8.442 8.442 0 0 1 8.5 0c2.27 0 4.405.884 6.01 2.49A8.443 8.443 0 0 1 17 8.5a8.436 8.436 0 0 1-2.49 6.01A8.445 8.445 0 0 1 8.5 17zM8.5.895C4.306.895.895 4.306.895 8.5c0 4.194 3.411 7.605 7.605 7.605 4.194 0 7.605-3.411 7.605-7.605 0-4.194-3.411-7.605-7.605-7.605z"/><path d="M8.5 14.316a5.82 5.82 0 0 1-5.736-4.848.448.448 0 0 1 .882-.148c.4 2.375 2.44 4.1 4.853 4.1A4.926 4.926 0 0 0 13.42 8.5a.448.448 0 0 1 .895 0 5.823 5.823 0 0 1-5.816 5.815H8.5z"/><path d="M9.395 11.479a.446.446 0 0 1-.149-.87A2.24 2.24 0 0 0 10.738 8.5a.448.448 0 0 1 .894 0 3.139 3.139 0 0 1-2.087 2.954.457.457 0 0 1-.15.025zm1.99-8.747a.448.448 0 0 0-.6.2l-.091.18a5.82 5.82 0 0 0-7.93 4.42.448.448 0 0 0 .881.148 4.904 4.904 0 0 1 4.853-4.1c.623 0 1.223.113 1.792.336l-.806 1.612A3.135 3.135 0 0 0 5.366 8.5c0 1.325.839 2.511 2.087 2.953a.446.446 0 0 0 .298-.843A2.24 2.24 0 0 1 6.26 8.5a2.24 2.24 0 0 1 2.817-2.16l-.415.83a1.344 1.344 0 0 0-1.508 1.331 1.343 1.343 0 0 0 2.685 0c0-.362-.145-.69-.377-.93l.634-1.27.001-.001 1.2-2.4v-.002l.283-.565a.448.448 0 0 0-.2-.6l.005-.001zM8.5 8.947a.448.448 0 1 1 0-.895.448.448 0 0 1 0 .895z"/></g></svg>