<svg xmlns="http://www.w3.org/2000/svg" viewBox="0 0 500 500"><path fill="#78909C" d="M192.9 183.1c0-9.1 1.4-17.4 4.1-24.9 2.7-7.5 6.7-13.9 12-19.2s11.5-9.4 18.9-12.3c7.4-2.9 15.7-4.4 24.8-4.4 7.6 0 14.7 1.1 21.3 3.4 6.6 2.2 12.3 5.5 17.2 9.7 4.9 4.2 8.8 9.5 11.6 15.8 2.8 6.3 4.2 13.5 4.2 21.4 0 5.8-.6 10.8-1.9 15.1-1.2 4.2-2.9 7.9-5 11-2.1 3.1-4.4 5.8-7.1 8.2-2.7 2.4-5.3 4.8-8 7.1-3.2 2.7-6.1 5.2-8.7 7.7-2.7 2.5-5 5.3-7 8.3-2 3.1-3.5 6.7-4.6 10.8-1.1 4.2-1.6 9.2-1.6 15.2h-26.9c0-7.3.4-13.5 1.1-18.6.7-5.1 2-9.5 3.6-13.3 1.7-3.8 3.7-7.2 6.1-10.1 2.4-2.9 5.3-5.8 8.6-8.6 2.7-2.3 5.2-4.5 7.6-6.5 2.4-2 4.6-4.2 6.5-6.6 1.9-2.4 3.4-5.1 4.5-8.1s1.6-6.6 1.6-10.7c0-5-.9-9.3-2.6-12.8-1.7-3.6-3.9-6.4-6.4-8.6-2.5-2.2-5.2-3.7-8-4.7s-5.3-1.5-7.5-1.5c-10.3 0-17.9 3.4-22.8 10.1-4.9 6.7-7.4 15.7-7.4 27h-28.2zm39.7 90.2H266v31.2h-33.4v-31.2zM444.4 48.6c15.3 0 27.8 12.5 27.8 27.8v348.8l-53.3-38.1-7.2-5.2H55.6c-11.2 0-27.8-21.9-27.8-41.7V76.4c0-15.3 12.5-27.8 27.8-27.8h388.8m0-27.8H55.6C24.9 20.8 0 45.7 0 76.4v263.9c0 30.7 24.9 69.4 55.6 69.4h347.2l97.2 69.4V76.4c0-30.7-24.9-55.6-55.6-55.6z"/></svg>