<svg viewBox="0 0 18 16" xmlns="http://www.w3.org/2000/svg"><path d="M4.974.941c-2.22 0-4.027 1.795-4.027 4 0 2.861 2.227 5.46 4.094 7.139A26.272 26.272 0 0 0 9 14.985a26.314 26.314 0 0 0 3.96-2.905c1.866-1.677 4.093-4.278 4.093-7.139 0-2.205-1.807-4-4.027-4-1.613 0-3.18 1.319-3.577 2.502a.473.473 0 0 1-.898 0C8.154 2.26 6.587.94 4.974.94zM9 16a.487.487 0 0 1-.23-.06c-.09-.048-2.204-1.224-4.35-3.15-1.27-1.138-2.285-2.302-3.016-3.463C.472 7.848 0 6.373 0 4.941 0 2.216 2.231 0 4.974 0c.928 0 1.914.345 2.776.973.504.367.934.81 1.25 1.28.316-.47.746-.913 1.249-1.28C11.112.345 12.097 0 13.026 0 15.77 0 18 2.216 18 4.941c0 1.432-.473 2.907-1.404 4.386-.73 1.16-1.745 2.325-3.015 3.464-2.146 1.925-4.26 3.1-4.35 3.15a.487.487 0 0 1-.23.059H9z" fill="#37474f" fill-rule="evenodd"/></svg>