<svg xmlns="http://www.w3.org/2000/svg" viewBox="0 0 61.998 61.998"><path d="M31.001 61.998C13.907 61.998 0 48.092 0 30.999S13.907 0 31.001 0c17.091 0 30.996 13.906 30.996 30.999S48.092 61.998 31.001 61.998zm0-57.034c-14.358 0-26.05 11.68-26.042 26.035.008 14.356 11.686 26.036 26.042 26.036 14.354 0 26.038-11.679 26.038-26.036 0-14.356-11.683-26.035-26.038-26.035zm-.002 42.035a3 3 0 1 1 0-6 3 3 0 0 1 0 6zm0-10a3 3 0 0 1-3-3v-16a3 3 0 1 1 6 0v16a3 3 0 0 1-3 3z" fill-rule="evenodd" clip-rule="evenodd" fill="#78909c"/></svg>