<svg xmlns="http://www.w3.org/2000/svg" viewBox="0 0 500 500"><path fill="#78909C" d="M461.6 383.1C486 344.6 500 299 500 250c0-48.8-14-94.4-38.3-132.8-9.9-16-21.7-30.7-34.9-43.9-13.3-13.3-27.9-25-43.8-34.8C344.6 14 299 0 250 0s-94.6 14-133.1 38.4c-14.2 8.9-27.4 19.1-39.3 30.7L69 77.6c-11.6 12-21.8 25.1-30.6 39.4C14 155.4 0 201 0 250s14 94.6 38.5 133c9.8 15.9 21.5 30.5 34.7 43.7 13.2 13.2 27.9 25 43.9 34.9C155.6 486 201.2 500 250 500c49 0 94.6-14 132.9-38.4 31.9-19.9 58.7-46.7 78.7-78.5zM250 472.4c-40.4 0-79-10.8-112.7-30.8-16.1-9.4-31-21-44.4-34.4C79.5 393.8 68 379 58.6 363.1c-20.1-33.8-30.8-72.5-30.8-112.9s10.6-79.2 30.7-113c9.4-16.1 20.9-30.9 34.3-44.3S121 68 136.9 58.6c33.8-20.1 72.6-30.7 113-30.7s79.2 10.6 113 30.7c15.9 9.4 30.7 20.9 44.1 34.3 13.4 13.4 25 28.3 34.4 44.4 20 33.7 30.7 72.5 30.7 112.8s-10.7 79.1-30.8 112.9c-9.4 15.9-20.9 30.7-34.3 44.1s-28.2 24.9-44.3 34.3c-33.7 20.2-72.4 30.9-112.7 31z"/><path fill="#78909C" d="M379.2 300.8c6.3-15.7 9.6-32.9 9.6-50.8.1-17.7-3.3-34.9-9.5-50.5-7.1-18-17.7-34.2-31.2-47.6-13.3-13.3-29.4-24.1-47.4-31.1-15.6-6.2-32.8-9.7-50.8-9.6-17.8 0-35 3.4-50.7 9.7-35.9 13.9-64.5 42.5-78.5 78.5-6.3 15.7-9.7 32.8-9.7 50.7 0 17.8 3.5 35.1 9.6 50.8 7.1 17.8 17.7 34 31.1 47.4 13.4 13.4 29.6 24.1 47.6 31.2 15.6 6.2 32.8 9.5 50.5 9.5 17.8 0 35.1-3.3 50.8-9.6 36.1-14.1 64.7-42.7 78.6-78.6zM250 361.2c-9.8 0-19.4-1.2-28.6-3.7-18.8-4.9-36-14.8-50-28.8s-23.8-31.1-28.6-49.8c-2.6-9.1-3.9-18.8-3.9-28.8s1.3-19.5 3.9-28.6c10.1-38.1 40.2-68.4 78.4-78.6 9.2-2.5 18.8-3.9 28.8-3.9 9.9.1 19.6 1.4 28.7 4 18.7 4.8 35.8 14.6 49.8 28.6 14 14 23.9 31.2 28.8 50 2.5 9.2 3.8 18.7 3.8 28.5-.1 9.9-1.4 19.6-3.9 28.8-4.8 18.7-14.6 35.8-28.6 49.8s-31.2 23.9-49.9 28.7c-9.2 2.5-18.9 3.8-28.7 3.8z"/><path fill-rule="evenodd" clip-rule="evenodd" fill="#26c6da" d="M461.7 117.2L357.4 221.5c-4.9-18.8-14.8-36-28.8-50s-31.1-23.8-49.8-28.6L383 38.5c15.9 9.8 30.5 21.5 43.7 34.7 13.3 13.3 25.1 28 35 44zM221.4 357.5L117.2 461.7c-16-9.9-30.7-21.7-43.9-34.9-13.3-13.3-25-27.9-34.8-43.8l104.2-104.2c4.8 18.7 14.6 35.8 28.6 49.8 14.1 14 31.2 23.9 50.1 28.9zm-78.7-136.1L38.4 117.1c8.8-14.3 19-27.5 30.6-39.4l8.5-8.5c12-11.6 25.1-21.8 39.3-30.7l104.3 104.3c-38.2 10.1-68.3 40.4-78.4 78.6zm240.2 240.2L278.7 357.4c18.7-4.8 35.9-14.7 49.9-28.7s23.8-31.1 28.6-49.8l104.3 104.3c-19.9 31.7-46.7 58.5-78.6 78.4z"/></svg>