<svg xmlns="http://www.w3.org/2000/svg" viewBox="0 0 17 16"><g fill="#78909C" fill-rule="evenodd"><path d="M16.576 15.11c-1.14 0-2.325-.76-2.76-1.07-.48.12-.98.182-1.49.182-1.222 0-2.377-.352-3.25-.992-.92-.673-1.426-1.584-1.426-2.563 0-.98.507-1.89 1.426-2.564.874-.64 2.028-.992 3.25-.992 1.22 0 2.375.36 3.248 1 .92.67 1.426 1.58 1.426 2.56 0 .86-.392 1.67-1.11 2.31.07.21.288.65.973 1.37.084.08.137.2.137.33 0 .25-.19.45-.425.45zM13.9 13.114c.092 0 .182.03.257.09.008.006.573.448 1.277.748-.462-.706-.45-1.108-.41-1.277a.459.459 0 0 1 .157-.243c.63-.49.97-1.116.97-1.763 0-.69-.37-1.34-1.06-1.84-.73-.54-1.71-.83-2.76-.83-1.05 0-2.03.29-2.76.83-.69.5-1.06 1.15-1.06 1.84 0 .68.38 1.33 1.07 1.83.73.53 1.71.83 2.76.83.51 0 1-.07 1.46-.21.04-.01.08-.02.12-.02z"/><path d="M.425 16a.429.429 0 0 1-.41-.326.455.455 0 0 1 .192-.5 5.475 5.475 0 0 0 2.244-2.826C.89 11.098 0 9.368 0 7.556c0-.915.22-1.8.653-2.635a6.78 6.78 0 0 1 1.752-2.11C3.925 1.57 5.937.89 8.075.89c1.936 0 3.81.572 5.272 1.612 1.474 1.047 2.44 2.5 2.72 4.084a.446.446 0 0 1-.342.517.424.424 0 0 1-.495-.354c-.237-1.35-1.076-2.6-2.36-3.51-1.324-.94-3.027-1.46-4.795-1.46C4.09 1.77.85 4.37.85 7.55c0 1.613.854 3.166 2.343 4.26.146.107.212.3.166.48-.1.386-.44 1.45-1.35 2.477 1.1-.406 2.3-1.11 3.18-1.74.1-.07.23-.09.36-.06.8.24 1.65.37 2.52.37.23 0 .42.2.42.443s-.19.444-.43.444c-.88 0-1.74-.115-2.57-.34-.366.25-1.048.702-1.86 1.126-1.267.66-2.35.99-3.227.99z"/></g></svg>