<svg viewBox="0 0 17 16" xmlns="http://www.w3.org/2000/svg"><g fill="#fff" fill-rule="evenodd"><path d="M16.576 15.111h-.001c-1.14 0-2.324-.76-2.76-1.072a6.08 6.08 0 0 1-1.49.183c-1.221 0-2.376-.352-3.249-.992-.92-.673-1.426-1.584-1.426-2.563 0-.98.507-1.891 1.426-2.564.874-.639 2.028-.992 3.249-.992s2.376.352 3.249.992c.92.673 1.426 1.584 1.426 2.564 0 .857-.392 1.668-1.11 2.308.07.205.288.646.973 1.365a.45.45 0 0 1 .137.327c0 .245-.19.444-.425.444zM13.9 13.113c.092 0 .182.031.257.09.008.006.573.448 1.277.748-.462-.707-.45-1.11-.409-1.278a.45.45 0 0 1 .156-.243c.625-.49.968-1.116.968-1.763 0-.682-.377-1.334-1.063-1.836C14.354 8.295 13.373 8 12.324 8s-2.03.295-2.761.831c-.686.502-1.064 1.154-1.064 1.836 0 .681.378 1.333 1.063 1.835.732.536 1.713.831 2.762.831.506 0 .997-.068 1.46-.204a.42.42 0 0 1 .115-.016h.001z"/><path d="M.425 16a.428.428 0 0 1-.41-.326.453.453 0 0 1 .192-.5 5.486 5.486 0 0 0 2.244-2.826C.89 11.098 0 9.368 0 7.556 0 6.64.22 5.755.653 4.92a6.75 6.75 0 0 1 1.752-2.117C3.924 1.57 5.937.888 8.075.888c1.936 0 3.809.572 5.272 1.612 1.474 1.048 2.44 2.5 2.719 4.085a.443.443 0 0 1-.341.517.427.427 0 0 1-.495-.356c-.237-1.35-1.076-2.597-2.361-3.51-1.323-.94-3.026-1.46-4.794-1.46C4.091 1.777.85 4.37.85 7.556c0 1.613.854 3.166 2.343 4.26a.456.456 0 0 1 .166.478 6.227 6.227 0 0 1-1.343 2.479c1.107-.406 2.299-1.109 3.178-1.742a.409.409 0 0 1 .358-.061c.806.24 1.655.363 2.523.363.235 0 .425.2.425.445s-.19.444-.425.444a9.61 9.61 0 0 1-2.564-.342 17.44 17.44 0 0 1-1.86 1.129c-1.265.658-2.35.991-3.225.991H.425z"/></g></svg>