<svg xmlns="http://www.w3.org/2000/svg" viewBox="0 0 500 500"><path fill="#78909C" d="M459.1 83.7c-.2-6.6-4.9-12.3-11.6-13.2-31.1-4.2-61.8-11.6-91.9-22.5-30-10.9-63.1-26.1-98.9-46.1-4.5-2.5-8.8-2.6-13.3 0C207.9 21.9 175 37 144.8 48 114.6 58.9 83.9 66.3 53 70.5c-6.7.9-11.4 6.6-12.1 13.2-3 125.7 24.8 228.5 83 308.5 31.7 43.5 71.4 78.9 119.4 105.8 3.7 2.7 9.5 2.5 13.8 0 47.6-27.4 87.2-62.5 118.9-105.8 58.4-79.9 85.9-182.8 83.1-308.5zM353.8 376.8c-27.5 37.7-62 69.1-103.8 94.3-41.8-25.2-76.5-56.5-103.8-94.3-53-73.2-78.8-166.9-77.9-281 29.2-4.7 58.1-12.5 87-23s60.6-25 94.7-43.4c34.1 18.4 65.5 32.8 94.4 43.4 28.9 10.5 58.1 18.4 87.3 23 1 114.9-25.1 208.6-77.9 281z"/><path fill="#26c6da" d="M315.8 187.7c-2.5-2.4-6.6-2.4-9 0l-75.1 73.1-38.7-37.9c-2.5-2.4-6.5-2.4-9 0l-13.6 13.2a6.1 6.1 0 0 0 0 8.8l56.7 55.6c2.5 2.4 6.5 2.4 9 0l93.2-90.8a6.1 6.1 0 0 0 0-8.8l-13.5-13.2z"/></svg>