<svg xmlns="http://www.w3.org/2000/svg" viewBox="0 0 500 500"><path fill-rule="evenodd" clip-rule="evenodd" fill="#78909C" d="M125 328.9h136.4v22.7H125zm0-56.8h250v22.7H125zm0-56.8h250V238H125zm0-56.9h250v22.7H125zm0-56.8h250v22.7H125z"/><path fill="#78909C" d="M295.5 477.3H90.9c-12.5 0-22.7-10.2-22.7-22.7V45.5c0-12.5 10.2-22.7 22.7-22.7h318.2c12.5 0 22.7 10.2 22.7 22.7v281.8h22.7V45.5C454.5 20.5 434 0 409 0H90.9c-25 0-45.5 20.5-45.5 45.5v409.1c0 25 20.5 45.5 45.5 45.5h204.5v-22.8z"/><path fill="#26c6da" d="M370.6 351.6h31.6v37.7l-8.2 69.4h-15l-8.4-69.4v-37.7zm.7 119.2h30.2V500h-30.2v-29.2z"/></svg>