<svg width="286" height="286" viewBox="0 0 286 286" fill="none" xmlns="http://www.w3.org/2000/svg">
<path opacity="0.496126" fill-rule="evenodd" clip-rule="evenodd" d="M143 143L142.998 143.006L157 286H129L142.997 143.008L101.485 281L76 270.309L142.998 143.003L51.68 254L32 234.319L142.998 143.002V143.003L143 143ZM143 143L210 270.309L184.515 281L143 143ZM143 143L254 234.319L234.32 254L143 143ZM142.998 143.001L15.6906 210L5 184.516L142.998 143.001ZM143 143L281 184.516L270.309 210L143 143ZM286 129V157L143 143L286 129ZM157 0L142.998 142.995L143 143L270.309 76L281 101.484L143 143.001L142.999 143L0 157V129L143 143L5 101.484L15.6906 76L143 143L32 51.681L51.68 32L142.998 142.997V142.995L76 15.6905L101.485 5L142.997 142.99L129 0H157ZM234.32 32L254 51.681L143 143L234.32 32ZM184.515 5L210 15.6905L143 143L184.515 5Z" fill="url(#paint0_radial)" fill-opacity="0.2"/>
<defs>
<radialGradient id="paint0_radial" cx="0" cy="0" r="1" gradientUnits="userSpaceOnUse" gradientTransform="translate(143 143) scale(157.797)">
<stop stop-color="#00E693"/>
<stop offset="1" stop-color="white"/>
</radialGradient>
</defs>
</svg>
