<svg xmlns="http://www.w3.org/2000/svg" viewBox="0 0 45.988 30"><path d="M45.895 15.416C41.879 24.031 33.137 30 22.994 30S4.108 24.031.092 15.416a.984.984 0 0 1 0-.832C4.108 5.97 12.851 0 22.994 0s18.885 5.97 22.901 14.584a.977.977 0 0 1 0 .832zM22.994 4.654c-5.723 0-10.365 4.63-10.365 10.348 0 5.713 4.637 10.348 10.365 10.348 5.723 0 10.365-4.635 10.365-10.348 0-5.713-4.637-10.348-10.365-10.348zm0 16.968c-3.665 0-6.636-2.966-6.636-6.625s2.971-6.625 6.636-6.625 6.635 2.966 6.635 6.625a6.63 6.63 0 0 1-6.635 6.625z" fill-rule="evenodd" clip-rule="evenodd" fill="#81c784"/></svg>