<svg viewBox="0 0 19 19" xmlns="http://www.w3.org/2000/svg"><path d="M12 7h6V5h-6v2zm5 10.5c0 .275-.225.5-.5.5H12V8h5v9.5zm-15 0V8h5v10H2.5a.5.5 0 0 1-.5-.5zM1 7h6V5H1v2zm3-4.5C4 1.673 4.673 1 5.5 1c.726 0 1.591.515 2.373 1.414.482.554.832 1.144 1.005 1.586H5.5C4.673 4 4 3.327 4 2.5zM8 18h3V5H8v13zm3.127-15.586C11.909 1.515 12.773 1 13.5 1c.827 0 1.5.673 1.5 1.5S14.327 4 13.5 4h-3.378c.173-.442.522-1.032 1.005-1.586zM18.5 4h-3.001c.315-.418.501-.938.501-1.5C16 1.122 14.878 0 13.5 0c-1.391 0-2.557 1.101-3.127 1.758A7.331 7.331 0 0 0 9.5 2.993a7.372 7.372 0 0 0-.873-1.235C8.056 1.102 6.89 0 5.5 0A2.503 2.503 0 0 0 3 2.5c0 .562.187 1.082.501 1.5H.5a.5.5 0 0 0-.5.5v3a.5.5 0 0 0 .5.5H1v9.5c0 .827.673 1.5 1.5 1.5h14c.827 0 1.5-.673 1.5-1.5V8h.5a.5.5 0 0 0 .5-.5v-3a.5.5 0 0 0-.5-.5z" fill="#b0bec5" fill-rule="evenodd"/></svg>