<svg xmlns="http://www.w3.org/2000/svg" viewBox="0 0 500 500"><path fill-rule="evenodd" clip-rule="evenodd" fill="#78909C" d="M125 328.9h136.4v22.7H125zm0-56.8h250v22.7H125zm0-56.8h250V238H125zm0-56.9h250v22.7H125zm0-56.8h250v22.7H125z"/><path fill-rule="evenodd" clip-rule="evenodd" fill="#26c6da" d="M336.1 419.7H448v79.4H336.1z"/><path fill="#26c6da" d="M432.6 379.1v27.3h-13.9v-27.3c0-8.8-5-15-14.1-15h-25.2c-9 0-14.2 6.2-14.2 15v27.3h-13.8v-27.3c0-15.1 12.6-27.4 28.1-27.4h25.2c15.3-.1 27.9 12.3 27.9 27.4z"/><path fill="#78909C" d="M295.5 477.3H90.9c-12.5 0-22.7-10.2-22.7-22.7V45.5c0-12.5 10.2-22.7 22.7-22.7h318.2c12.5 0 22.7 10.2 22.7 22.7v281.8h22.7V45.5C454.5 20.5 434 0 409 0H90.9c-25 0-45.5 20.5-45.5 45.5v409.1c0 25 20.5 45.5 45.5 45.5h204.5v-22.8z"/></svg>