<svg viewBox="0 0 15 16" xmlns="http://www.w3.org/2000/svg"><path d="M1.974 16a.398.398 0 0 1-.395-.4V9.2c0-.22.177-.4.395-.4.218 0 .394.18.394.4v6.4c0 .22-.176.4-.394.4zm0-11.2a.398.398 0 0 1-.395-.4v-4c0-.22.177-.4.395-.4.218 0 .394.18.394.4v4c0 .22-.176.4-.394.4zM2.763 8H1.184A1.194 1.194 0 0 1 0 6.8c0-.662.531-1.2 1.184-1.2h1.58c.652 0 1.183.538 1.183 1.2 0 .662-.53 1.2-1.184 1.2zM1.184 6.4a.398.398 0 0 0-.395.4c0 .22.177.4.395.4h1.58c.217 0 .394-.18.394-.4 0-.22-.177-.4-.395-.4H1.184zM7.5 16a.398.398 0 0 1-.395-.4v-3.2c0-.22.177-.4.395-.4.218 0 .395.18.395.4v3.2c0 .22-.177.4-.395.4zm0-8a.398.398 0 0 1-.395-.4V.4c0-.22.177-.4.395-.4.218 0 .395.18.395.4v7.2c0 .22-.177.4-.395.4zm.79 3.2H6.71A1.194 1.194 0 0 1 5.527 10c0-.662.532-1.2 1.185-1.2H8.29c.653 0 1.185.538 1.185 1.2 0 .662-.532 1.2-1.185 1.2zM6.71 9.6a.398.398 0 0 0-.394.4c0 .22.177.4.395.4h1.578c.218 0 .395-.18.395-.4 0-.22-.177-.4-.395-.4H6.711zm6.316 6.4a.398.398 0 0 1-.394-.4v-8c0-.22.176-.4.394-.4.218 0 .395.18.395.4v8c0 .22-.177.4-.395.4zm0-12.8a.398.398 0 0 1-.394-.4V.4c0-.22.176-.4.394-.4.218 0 .395.18.395.4v2.4c0 .22-.177.4-.395.4zm.79 3.2h-1.58a1.194 1.194 0 0 1-1.183-1.2c0-.662.53-1.2 1.184-1.2h1.579C14.469 4 15 4.538 15 5.2c0 .662-.531 1.2-1.184 1.2zm-1.58-1.6a.398.398 0 0 0-.394.4c0 .22.177.4.395.4h1.579c.218 0 .395-.18.395-.4 0-.22-.177-.4-.395-.4h-1.58z" fill="#455a64" fill-rule="evenodd"/></svg>