<svg xmlns="http://www.w3.org/2000/svg" viewBox="0 0 61.998 61.998"><path d="M31.001 61.998C13.907 61.998 0 48.092 0 30.999S13.907 0 31.001 0c17.091 0 30.996 13.906 30.996 30.999S48.092 61.998 31.001 61.998zm0-57.034c-14.358 0-26.05 11.68-26.042 26.035.008 14.356 11.686 26.036 26.042 26.036 14.354 0 26.038-11.679 26.038-26.036 0-14.356-11.683-26.035-26.038-26.035zm8.998 39.035h-18c-.509 0-1.112-.182-1.469-.527-.357-.344-.531-.981-.531-1.473l-.004-10.409c0-.492.178-.911.535-1.255.357-.344.79-.516 1.299-.516h.611v-3.543c0-2.263.84-4.207 2.522-5.83 1.681-1.624 3.694-2.436 6.038-2.436 2.344 0 4.357.812 6.038 2.436 1.681 1.624 2.522 3.567 2.522 5.83v3.543l.437.181c.51 0 1.116-.009 1.473.336.357.345.527 1.172.527 1.664v10c0 .492-.17 1.129-.526 1.473-.355.344-.962.526-1.472.526zm-4-18c0-1.304-.584-2.141-1.539-3.063-.955-.923-2.108-1.384-3.458-1.384s-2.503.461-3.459 1.384c-.955.922-1.544 1.759-1.544 3.063v4h10v-4z" fill-rule="evenodd" clip-rule="evenodd" fill="#78909c"/></svg>