<svg viewBox="0 0 15 16" xmlns="http://www.w3.org/2000/svg"><g fill="#78909c" fill-rule="evenodd"><path d="M9.079 5.333c.218 0 .395-.199.395-.444V1.333C9.474.598 8.942 0 8.289 0H1.184C.531 0 0 .598 0 1.333V12c0 .663.424 1.387.965 1.647l4.075 1.966c.14.068.283.102.42.102a.772.772 0 0 0 .465-.153c.248-.184.39-.511.39-.896v-1.334H8.29c.653 0 1.185-.598 1.185-1.333V8.444c0-.246-.177-.445-.395-.445-.218 0-.395.2-.395.445v3.555c0 .245-.177.445-.395.445H6.316V3.999c0-.663-.424-1.387-.965-1.647L2.318.888h5.971c.218 0 .395.2.395.444v3.556c0 .245.177.444.395.444v.001zM5.04 3.17c.254.122.486.519.486.83v10.667c0 .092-.022.144-.035.153-.014.01-.064.013-.14-.024L1.276 12.83c-.254-.122-.487-.518-.487-.83V1.333a.5.5 0 0 1 .04-.195L5.04 3.17z"/><path d="M14.49 6.352l-2.368-2.667a.365.365 0 0 0-.559 0 .485.485 0 0 0 0 .629l1.695 1.907H8.289c-.217 0-.394.2-.394.445s.177.444.394.444h4.969l-1.695 1.908a.485.485 0 0 0 0 .628c.078.087.179.13.28.13a.375.375 0 0 0 .28-.13L14.49 6.98a.485.485 0 0 0 0-.629l-.001.001z"/></g></svg>