<svg xmlns="http://www.w3.org/2000/svg" viewBox="0 0 61.998 61.998"><path d="M31.001 61.998C13.907 61.998 0 48.092 0 30.999S13.907 0 31.001 0c17.091 0 30.996 13.906 30.996 30.999S48.092 61.998 31.001 61.998zm13.617-8.85c-.515-6.175-3.082-10.039-8.659-12.229h-8.68c-5.576 2.189-9.357 6.054-9.895 12.229 3.968 2.448 8.622 3.887 13.617 3.887 4.994 0 9.649-1.439 13.617-3.887zm-4.951-25.869c0-4.794-3.881-8.68-8.668-8.68s-8.668 3.886-8.668 8.68 3.881 8.68 8.668 8.68 8.668-3.886 8.668-8.68zM31.001 4.964c-14.358 0-26.05 11.68-26.042 26.035.004 7.37 3.097 14.02 8.036 18.761 1.375-5.139 4.903-9.399 9.561-11.768-3.178-2.497-5.225-6.363-5.225-10.713 0-7.533 6.12-13.64 13.668-13.64 7.549 0 13.668 6.107 13.668 13.64 0 4.35-2.048 8.215-5.225 10.713 4.659 2.37 8.187 6.631 9.562 11.771 4.941-4.741 8.035-11.392 8.035-18.764 0-14.356-11.683-26.035-26.038-26.035z" fill-rule="evenodd" clip-rule="evenodd" fill="#78909c"/></svg>