<?xml version="1.0" encoding="utf-8"?>
<!-- Generator: Adobe Illustrator 19.2.1, SVG Export Plug-In . SVG Version: 6.00 Build 0)  -->
<!DOCTYPE svg PUBLIC "-//W3C//DTD SVG 1.1//EN" "http://www.w3.org/Graphics/SVG/1.1/DTD/svg11.dtd">
<svg version="1.1" id="Layer_1" xmlns="http://www.w3.org/2000/svg" xmlns:xlink="http://www.w3.org/1999/xlink" x="0px" y="0px"
	 viewBox="0 0 26 26" style="enable-background:new 0 0 26 26;" xml:space="preserve">
<style type="text/css">
	.st0{fill:#DCDCDC;}
</style>
<title>notification_ic</title>
<path class="st0" d="M13.1,26c-1.7,0-3-1.4-3-3c0,0,0,0,0,0h6.1C16.1,24.6,14.8,26,13.1,26L13.1,26z"/>
<path class="st0" d="M23.1,20.2c0,1.1-0.9,1.2-2,1.2H4.9c-1.1,0-2-0.1-2-1.2V20c0-0.8,0.5-1.5,1.1-1.8l0.6-5.5c0-4,2.8-7.4,6.6-8.2
	V2.4c0-1,0.8-1.7,1.7-1.7c1,0,1.7,0.8,1.7,1.7v2.1c3.9,0.8,6.6,4.2,6.6,8.2l0.6,5.5c0.7,0.3,1.1,1,1.1,1.8V20.2z"/>
</svg>
