<svg viewBox="0 0 24 25" xmlns="http://www.w3.org/2000/svg" xmlns:xlink="http://www.w3.org/1999/xlink"><defs><linearGradient x1="50%" y1="0%" x2="50%" y2="100%" id="b"><stop stop-color="#FF7C29" offset="0%"/><stop stop-color="#FF5778" offset="100%"/></linearGradient><path d="M19.679 11.23l-.307-.418a1.32 1.32 0 0 1-.012-1.538l.298-.423a1.32 1.32 0 0 0-.456-1.923l-.456-.244a1.314 1.314 0 0 1-.675-1.38l.087-.51c.132-.78-.452-1.5-1.244-1.534l-.518-.02a1.321 1.321 0 0 1-1.21-.95l-.145-.497A1.314 1.314 0 0 0 13.255.95l-.477.204a1.313 1.313 0 0 1-1.5-.332l-.344-.385A1.314 1.314 0 0 0 8.96.454l-.34.39a1.318 1.318 0 0 1-1.496.352l-.48-.199a1.32 1.32 0 0 0-1.774.87l-.137.502a1.31 1.31 0 0 1-1.194.966l-.518.029a1.316 1.316 0 0 0-1.218 1.554l.095.51a1.314 1.314 0 0 1-.655 1.388l-.451.253a1.315 1.315 0 0 0-.423 1.927l.306.419a1.32 1.32 0 0 1 .013 1.538l-.299.422A1.32 1.32 0 0 0 .845 13.3l.456.244c.498.265.771.82.676 1.38l-.087.51c-.133.78.452 1.5 1.243 1.534l.518.02a1.321 1.321 0 0 1 1.21.95l.146.497a1.314 1.314 0 0 0 1.786.841l.477-.203a1.313 1.313 0 0 1 1.5.332l.344.385c.53.589 1.455.584 1.973-.016l.34-.39a1.318 1.318 0 0 1 1.496-.352l.48.199a1.32 1.32 0 0 0 1.775-.87l.136-.502a1.31 1.31 0 0 1 1.194-.966l.518-.03a1.316 1.316 0 0 0 1.219-1.553l-.096-.51a1.314 1.314 0 0 1 .655-1.389l.452-.252a1.314 1.314 0 0 0 .423-1.928z" id="a"/><mask id="c" x="-2" y="-2" width="23.819" height="24.227"><path fill="#fff" d="M-1.886-2h23.819v24.227H-1.886z"/><use xlink:href="#a"/></mask></defs><g fill="none" fill-rule="evenodd"><g transform="translate(2 2)"><use fill="url(#b)" xlink:href="#a"/><use stroke="#F7F7F7" mask="url(#c)" stroke-width="4" xlink:href="#a"/></g><path d="M16.55 9.96a.636.636 0 0 0-.63.555l-2.333 1.092-1.01-1.474a.926.926 0 0 0-.553-1.67.929.929 0 0 0-.554 1.67l-1.01 1.474-2.331-1.092a.636.636 0 0 0-1.266.08c0 .268.166.498.402.59l.838 3.804c.046.208.23.355.442.355h6.957a.452.452 0 0 0 .442-.355l.839-3.803a.636.636 0 0 0-.234-1.226z" fill="#FFF"/></g></svg>