<?xml version="1.0" encoding="UTF-8" standalone="no"?>
<svg width="21px" height="20px" viewBox="0 0 21 20" version="1.1" xmlns="http://www.w3.org/2000/svg" xmlns:xlink="http://www.w3.org/1999/xlink">
    <!-- Generator: Sketch 3.8.3 (29802) - http://www.bohemiancoding.com/sketch -->
    <title>visitors_ic</title>
    <desc>Created with Sketch.</desc>
    <defs>
        <filter x="-50%" y="-50%" width="200%" height="200%" filterUnits="objectBoundingBox" id="filter-1">
            <feOffset dx="0" dy="1" in="SourceAlpha" result="shadowOffsetOuter1"></feOffset>
            <feGaussianBlur stdDeviation="1" in="shadowOffsetOuter1" result="shadowBlurOuter1"></feGaussianBlur>
            <feColorMatrix values="0 0 0 0 0   0 0 0 0 0   0 0 0 0 0  0 0 0 0.1 0" type="matrix" in="shadowBlurOuter1" result="shadowMatrixOuter1"></feColorMatrix>
            <feMerge>
                <feMergeNode in="shadowMatrixOuter1"></feMergeNode>
                <feMergeNode in="SourceGraphic"></feMergeNode>
            </feMerge>
        </filter>
    </defs>
    <g id="Page-1" stroke="none" stroke-width="1" fill="none" fill-rule="evenodd">
        <g id="profile" transform="translate(-577.000000, -402.000000)">
            <g id="head" filter="url(#filter-1)" transform="translate(139.000000, 167.000000)">
                <g id="user" transform="translate(192.000000, 190.000000)">
                    <g id="cauntr-left" transform="translate(248.000000, 44.000000)">
                        <g id="vis">
                            <g id="Group-4" transform="translate(0.500000, 0.000000)">
                                <g id="Group-7">
                                    <g id="visitors_ic" transform="translate(0.000000, 2.000000)">
                                        <circle id="Oval-1" fill="#00B0FF" cx="8" cy="8" r="8"></circle>
                                        <path d="M7.99998564,8.00339985 C8.72120376,8.00339985 9.28214161,7.26877794 9.28214161,6.50831151 L9.28214161,6.27006795 C9.28214161,5.50962973 8.72120376,4.97005492 7.99998564,4.97005492 C7.27873878,4.97005492 6.71780093,5.50960152 6.71780093,6.27006795 L6.71780093,6.50831151 C6.71780093,7.26877794 7.27873878,8.00339985 7.99998564,8.00339985 L7.99998564,8.00339985 Z M5.43119192,8.24934598 C5.6374102,8.24934598 6.2017381,7.98658399 6.2017381,7.44136626 L6.2017381,7.0373623 C6.2017381,6.49211636 5.79464518,6.22935437 5.43119192,6.22935437 C5.07980494,6.22935437 4.66067447,6.49211636 4.66067447,7.0373623 L4.66067447,7.44136626 C4.66067447,7.98658399 5.2359482,8.24934598 5.43119192,8.24934598 L5.43119192,8.24934598 Z M10.0479762,9.25953928 C10.047574,9.25558924 10.0463674,9.25183671 10.0459652,9.24791489 C10.039932,9.20034518 10.0306812,9.15381941 10.0178393,9.10825293 C10.0178393,9.10782971 10.0178393,9.10746292 10.0174371,9.10706792 C9.99051778,9.01020741 9.9450969,8.91690193 9.8772385,8.82497897 L9.8772385,8.82458397 C9.76594153,8.67329762 9.59804802,8.51899231 9.32526416,8.36852418 C9.18104352,8.2889874 9.11755196,8.25253422 9.02840522,8.25253422 C8.88659783,8.25253422 8.76286112,8.36082161 8.55440196,8.54881508 L8.55397102,8.54881508 L8.36435822,8.72002089 C8.35752067,8.72636916 8.1530836,9.01000991 8.00001436,9.01000991 C7.84694513,9.01000991 7.64247933,8.72634095 7.63564178,8.72002089 L7.44602898,8.54881508 L7.44562677,8.54881508 C7.23716761,8.36082161 7.1134309,8.25253422 6.97162351,8.25253422 C6.88244804,8.25253422 6.80286812,8.2889874 6.67476457,8.36852418 C6.41028345,8.53247886 6.23402974,8.67310012 6.12319244,8.82416075 L6.1227615,8.82435825 C6.12235929,8.82475326 6.12235929,8.82537397 6.12198581,8.82571255 C6.05487437,8.91687372 6.00988443,9.00958669 5.98299389,9.10585469 C5.98262041,9.1066447 5.98216074,9.10763221 5.98184472,9.1085915 C5.96934751,9.15381941 5.96009671,9.19972446 5.9540923,9.24687095 C5.95369009,9.25124421 5.95248346,9.25536353 5.95205253,9.25970857 C5.9464216,9.30981759 5.94323266,9.36091411 5.94323266,9.41395744 C5.94323266,9.41985428 5.94311774,10.5198262 5.94323266,10.5249613 C5.94323266,10.8839631 6.08101796,11.0299451 6.45742808,11.0299451 L9.5426581,11.0299451 C9.92231463,11.0299451 10.0568535,10.8918349 10.0568535,10.5249613 C10.0569684,10.5198262 10.0568248,9.41985428 10.0568248,9.41395744 C10.0567961,9.36094233 10.0535784,9.3098458 10.0479762,9.25953928 L10.0479762,9.25953928 Z M10.5732898,8.24934598 C10.7794794,8.24934598 11.3438647,7.98658399 11.3438647,7.44136626 L11.3438647,7.0373623 C11.3438647,6.49211636 10.9367718,6.22935437 10.5732898,6.22935437 C10.2218741,6.22935437 9.80274365,6.49211636 9.80274365,7.0373623 L9.80274365,7.44136626 C9.80274365,7.98658399 10.3780174,8.24934598 10.5732898,8.24934598 L10.5732898,8.24934598 Z M4.47126278,8.79617193 C3.99277776,9.06367396 3.88633604,9.49016491 3.88633604,9.76751381 C3.88633604,9.77183064 3.88593383,10.2685758 3.88633604,10.2724976 C3.88633604,10.6390045 4.01168158,10.7775096 4.40053146,10.7775096 L5.42895104,10.7775096 L5.42895104,9.26250181 L5.17185333,9.01000991 C4.89984516,8.77447495 4.67052859,8.68492201 4.47126278,8.79617193 L4.47126278,8.79617193 Z M5.42895104,9.30999859 C5.44865104,9.31915569 5.42895104,9.08107121 5.42895104,9.30999859 L5.42895104,9.30999859 L5.42895104,9.30999859 Z M12.113664,9.76751381 C12.113664,9.49013669 12.0071935,9.06364574 11.5287372,8.79617193 C11.3294714,8.68492201 11.1001548,8.77447495 10.8281467,9.01003812 L10.571049,9.26253002 L10.571049,10.7775378 L11.5994685,10.7775378 C11.9883184,10.7775378 12.113664,10.6390327 12.113664,10.2725258 C12.1140662,10.2685758 12.113664,9.77185885 12.113664,9.76751381 L12.113664,9.76751381 Z M10.5772287,9.30999859 C10.5772287,9.08107121 10.5576287,9.31915569 10.5772287,9.30999859 L10.5772287,9.30999859 L10.5772287,9.30999859 Z" id="icon" fill="#FFFFFF"></path>
                                    </g>
                                </g>
                            </g>
                        </g>
                    </g>
                </g>
            </g>
        </g>
    </g>
</svg>