<?xml version="1.0" standalone="no"?>
<!DOCTYPE svg PUBLIC "-//W3C//DTD SVG 20010904//EN"
 "http://www.w3.org/TR/2001/REC-SVG-20010904/DTD/svg10.dtd">
<svg version="1.0" xmlns="http://www.w3.org/2000/svg"
 width="700.000000pt" height="700.000000pt" viewBox="0 0 700.000000 700.000000"
 preserveAspectRatio="xMidYMid meet">
<metadata>
Created by potrace 1.14, written by Peter Selinger 2001-2017
</metadata>
<g transform="translate(0.000000,700.000000) scale(0.100000,-0.100000)"
fill="#000000" stroke="none">
<path d="M1665 6994 c-212 -27 -360 -61 -508 -120 -639 -252 -1078 -833 -1147
-1519 -8 -78 -10 -647 -7 -1930 4 -1986 0 -1849 61 -2079 185 -695 773 -1217
1496 -1328 125 -19 3756 -19 3880 0 519 81 962 361 1251 791 166 245 269 535
299 836 8 77 10 651 7 1930 -4 1986 0 1849 -61 2079 -166 624 -672 1126 -1296
1286 -220 57 -89 53 -2095 55 -1017 1 -1863 1 -1880 -1z m2114 -990 c590 -76
1145 -361 1556 -796 168 -179 204 -236 205 -329 1 -135 -101 -245 -236 -257
-96 -8 -164 29 -255 138 -336 405 -832 675 -1363 740 -130 16 -402 13 -535 -5
-305 -43 -613 -158 -861 -322 -139 -92 -195 -137 -319 -258 -410 -397 -631
-923 -631 -1500 0 -550 201 -1052 581 -1449 312 -327 711 -538 1174 -621 122
-23 432 -31 565 -16 405 47 789 206 1100 458 101 82 272 259 349 363 90 120
110 140 166 166 183 87 396 -78 356 -275 -19 -92 -154 -274 -351 -471 -333
-333 -748 -570 -1200 -685 -370 -94 -803 -103 -1178 -25 -576 120 -1099 436
-1480 895 -252 302 -451 710 -536 1095 -80 365 -80 769 0 1128 251 1123 1194
1946 2339 2042 140 11 404 4 554 -16z m-699 -1564 c101 -24 246 -93 318 -149
28 -23 53 -41 55 -41 2 0 22 14 43 31 68 54 169 108 265 141 92 32 98 33 264
33 164 -1 173 -2 265 -33 134 -45 239 -109 336 -206 137 -137 205 -283 225
-479 6 -61 9 -286 7 -544 l-3 -439 -30 -59 c-37 -73 -95 -119 -170 -136 -136
-30 -273 56 -304 191 -6 27 -11 228 -11 506 0 520 0 522 -73 597 -61 62 -125
89 -222 95 -66 3 -91 0 -139 -18 -74 -28 -142 -89 -172 -155 l-24 -50 0 -485
c0 -466 -1 -487 -21 -530 -88 -196 -349 -214 -456 -32 l-28 47 -5 505 -5 505
-25 48 c-29 58 -86 112 -149 141 -66 30 -216 30 -282 0 -63 -30 -116 -79 -147
-138 l-27 -51 -5 -505 c-5 -539 -3 -515 -57 -586 -29 -39 -108 -82 -165 -90
-110 -15 -228 57 -268 164 -21 54 -21 68 -18 571 4 581 2 563 83 728 99 202
309 365 542 422 110 27 290 28 403 1z m2839 -407 c95 -26 172 -72 247 -147
110 -110 164 -240 164 -394 -1 -359 -340 -629 -689 -547 -197 47 -364 209
-416 405 -19 72 -19 210 0 284 45 174 176 320 342 382 116 44 235 50 352 17z"/>
<path d="M5706 3686 c-106 -39 -157 -132 -134 -239 26 -122 167 -191 283 -138
145 66 154 281 16 359 -51 29 -116 36 -165 18z"/>
</g>
</svg>
