<svg xmlns="http://www.w3.org/2000/svg" viewBox="0 0 512 512"><path d="M432 327H80c-44.112 0-80 35.888-80 80s35.888 80 80 80h352c44.112 0 80-35.888 80-80s-35.888-80-80-80zM106 432c-13.807 0-25-11.193-25-25s11.193-25 25-25 25 11.193 25 25-11.193 25-25 25zm100 0c-13.807 0-25-11.193-25-25s11.193-25 25-25 25 11.193 25 25-11.193 25-25 25zm100 0c-13.807 0-25-11.193-25-25s11.193-25 25-25 25 11.193 25 25-11.193 25-25 25zm100 0c-13.807 0-25-11.193-25-25s11.193-25 25-25 25 11.193 25 25-11.193 25-25 25zm-55-305h-20v-27c0-41.355-33.645-75-75-75s-75 33.645-75 75v27h-20c-8.284 0-15 6.716-15 15v119c0 8.284 6.716 15 15 15h190c8.284 0 15-6.716 15-15V142c0-8.284-6.716-15-15-15zm-80 79.128V212c0 8.284-6.716 15-15 15s-15-6.716-15-15v-5.872c-5.822-2.061-10-7.6-10-14.128 0-8.284 6.716-15 15-15h20c8.284 0 15 6.716 15 15 0 6.528-4.178 12.067-10 14.128zM301 127h-90v-27c0-24.813 20.187-45 45-45s45 20.187 45 45v27z"/></svg>