<svg width="196" height="40" viewBox="0 0 196 40" fill="none" xmlns="http://www.w3.org/2000/svg">
<path d="M17.8619 1.80251C17.8619 2.79801 17.0549 3.60502 16.0594 3.60502C15.0639 3.60502 14.2569 2.79801 14.2569 1.80251C14.2569 0.80701 15.0639 0 16.0594 0C17.0549 0 17.8619 0.80701 17.8619 1.80251Z" fill="#00866E"/>
<path d="M16.0001 1L18.5981 11.5H13.402L16.0001 1Z" fill="#00866E"/>
<path d="M12.1703 2.04644C12.4447 3.00337 11.8914 4.00156 10.9344 4.27596C9.9775 4.55035 8.97931 3.99705 8.70492 3.04011C8.43052 2.08318 8.98383 1.08499 9.94076 0.810593C10.8977 0.536196 11.8959 1.0895 12.1703 2.04644Z" fill="#00866E"/>
<path d="M10.1594 1.7882L15.551 11.1653L10.5561 12.5976L10.1594 1.7882Z" fill="#00866E"/>
<path d="M6.05906 4.13159C6.60125 4.96649 6.36396 6.08283 5.52906 6.62502C4.69417 7.16721 3.57783 6.92992 3.03564 6.09503C2.49345 5.26013 2.73074 4.14379 3.56563 3.6016C4.40053 3.05941 5.51687 3.2967 6.05906 4.13159Z" fill="#00866E"/>
<path d="M4.06052 4.47258L11.9582 11.8636L7.6003 14.6936L4.06052 4.47258Z" fill="#00866E"/>
<path d="M19.7316 2.04642C19.4573 3.00335 20.0106 4.00154 20.9675 4.27594C21.9244 4.55034 22.9226 3.99703 23.197 3.0401C23.4714 2.08316 22.9181 1.08497 21.9612 0.810577C21.0042 0.536181 20.006 1.08949 19.7316 2.04642Z" fill="#00866E"/>
<path d="M21.7425 1.78819L16.3509 11.1653L21.3458 12.5976L21.7425 1.78819Z" fill="#00866E"/>
<path d="M25.8428 4.13156C25.3006 4.96646 25.5379 6.0828 26.3728 6.62499C27.2077 7.16718 28.324 6.92989 28.8662 6.09499C29.4084 5.2601 29.1711 4.14375 28.3362 3.60157C27.5013 3.05938 26.385 3.29667 25.8428 4.13156Z" fill="#00866E"/>
<path d="M27.8413 4.47255L19.9437 11.8636L24.3015 14.6936L27.8413 4.47255Z" fill="#00866E"/>
<path fill-rule="evenodd" clip-rule="evenodd" d="M3.55314 14.7351C4.09503 14.3858 4.75888 14.0724 5.51259 13.9435C7.62014 13.583 9.72769 14.304 9.72769 14.304C9.72769 14.304 12.5377 11.42 16.0503 11.42C20.2654 11.42 22.373 14.304 22.373 14.304C22.373 14.304 24.4654 13.652 25.8855 13.9435C26.5596 14.0818 27.2336 14.4326 27.8083 14.8123C28.1227 15.02 28.4073 15.2364 28.6461 15.4314C29.1082 15.8089 29.3981 16.1065 29.3981 16.1065L29.2522 16.2188C28.7863 16.5774 28.3786 16.9881 28.0325 17.4376C26.596 19.3034 26.2215 21.8378 27.1617 24.0895C28.4445 27.1615 27.2707 30.7092 24.4087 32.4097L16.0503 37.3761L7.5167 32.3056C4.75526 30.6648 3.62262 27.2417 4.86036 24.2776C5.86363 21.875 5.31177 19.1581 3.57468 17.3399C3.57473 17.34 3.57463 17.3399 3.57468 17.3399C3.56845 17.3334 3.56205 17.3267 3.55578 17.3202C3.23111 16.9832 2.86548 16.6775 2.46128 16.4108L2.00001 16.1065C2.00001 16.1065 2.5798 15.3627 3.55314 14.7351ZM6.49508 34.0249L15.0287 39.0955C15.6584 39.4696 16.4423 39.4696 17.072 39.0955L25.4303 34.1291C29.1488 31.9196 30.674 27.3102 29.0073 23.3188C28.1897 21.3609 28.7908 19.0979 30.4721 17.8037L30.6181 17.6914C31.0704 17.3431 31.3525 16.8182 31.3931 16.2488C31.4337 15.6793 31.229 15.1197 30.8306 14.7108L29.3981 16.1065C30.8306 14.7108 30.8309 14.7111 30.8306 14.7108L30.8294 14.7096L30.8281 14.7082L30.8249 14.7049L30.8166 14.6965L30.7921 14.6718C30.7723 14.6521 30.7458 14.6259 30.7129 14.5939C30.6472 14.5301 30.5556 14.443 30.4416 14.3393C30.2149 14.1333 29.8925 13.8552 29.5031 13.5622C28.7741 13.0135 27.6076 12.2553 26.2877 11.9843C25.1884 11.7587 23.998 11.9096 23.2412 12.0463C23.168 12.0595 23.0966 12.073 23.0271 12.0867C22.7299 11.8149 22.3617 11.5124 21.9217 11.2114C20.6067 10.3116 18.6396 9.41998 16.0503 9.41998C13.7641 9.41998 11.8062 10.3484 10.5038 11.171C9.98585 11.4981 9.54609 11.8246 9.20032 12.103C9.05935 12.0736 8.908 12.0446 8.74768 12.0172C7.83445 11.861 6.5344 11.7397 5.17538 11.9721C3.66225 12.231 2.47316 12.9883 1.71052 13.6033C1.31936 13.9187 1.01153 14.22 0.797351 14.4471C0.689628 14.5614 0.603824 14.6588 0.54126 14.7323C0.50993 14.7691 0.484284 14.8001 0.464488 14.8245L0.439151 14.856L0.429778 14.8678L0.425919 14.8727L0.423389 14.8759C0.422999 14.8764 0.422614 14.8769 2.00001 16.1065L0.422615 14.8769C0.0796746 15.3169 -0.0639423 15.8801 0.0264361 16.4305C0.116814 16.981 0.432975 17.4687 0.898589 17.7759L1.35986 18.0802C3.14327 19.2569 3.83812 21.5353 3.01481 23.5069C1.39315 27.3904 2.87711 31.8752 6.49508 34.0249Z" fill="#202033"/>
<path d="M9.72767 14.304C9.72767 14.304 12.5377 11.42 16.0503 11.42C20.2654 11.42 22.373 14.304 22.373 14.304C22.373 14.304 24.4654 13.652 25.8855 13.9435C27.6418 14.304 29.3981 16.1065 29.3981 16.1065L29.2522 16.2188C26.8527 18.0658 25.9949 21.2953 27.1617 24.0895C28.4445 27.1615 27.2707 30.7092 24.4087 32.4097L16.0503 37.3761L7.51669 32.3056C4.75525 30.6648 3.6226 27.2417 4.86035 24.2776C6.05385 21.4195 5.04657 18.1166 2.46127 16.4108L2 16.1065C2 16.1065 3.40503 14.304 5.51258 13.9435C7.62013 13.583 9.72767 14.304 9.72767 14.304Z" fill="#00866E" stroke="#00866E" stroke-width="1.80251" stroke-linejoin="round"/>
<path d="M18.9359 29.9999L16.3619 26.3099C16.2539 26.3219 16.0919 26.3279 15.8759 26.3279H13.0319V29.9999H10.6919V17.3999H15.8759C16.9679 17.3999 17.9159 17.5799 18.7199 17.9399C19.5359 18.2999 20.1599 18.8159 20.5919 19.4879C21.0239 20.1599 21.2399 20.9579 21.2399 21.8819C21.2399 22.8299 21.0059 23.6459 20.5379 24.3299C20.0819 25.0139 19.4219 25.5239 18.5579 25.8599L21.4559 29.9999H18.9359ZM18.8819 21.8819C18.8819 21.0779 18.6179 20.4599 18.0899 20.0279C17.5619 19.5959 16.7879 19.3799 15.7679 19.3799H13.0319V24.4019H15.7679C16.7879 24.4019 17.5619 24.1859 18.0899 23.7539C18.6179 23.3099 18.8819 22.6859 18.8819 21.8819Z" fill="#FBF5EB"/>
<path d="M48.1439 28.9999L44.9979 24.4899C44.8659 24.5046 44.6679 24.5119 44.4039 24.5119H40.9279V28.9999H38.0679V13.5999H44.4039C45.7385 13.5999 46.8972 13.8199 47.8799 14.2599C48.8772 14.6999 49.6399 15.3306 50.1679 16.1519C50.6959 16.9733 50.9599 17.9486 50.9599 19.0779C50.9599 20.2366 50.6739 21.2339 50.1019 22.0699C49.5445 22.9059 48.7379 23.5293 47.6819 23.9399L51.2239 28.9999H48.1439ZM48.0779 19.0779C48.0779 18.0953 47.7552 17.3399 47.1099 16.8119C46.4645 16.2839 45.5185 16.0199 44.2719 16.0199H40.9279V22.1579H44.2719C45.5185 22.1579 46.4645 21.8939 47.1099 21.3659C47.7552 20.8233 48.0779 20.0606 48.0779 19.0779Z" fill="#FBF5EB"/>
<path d="M53.8957 17.2519H56.6457V28.9999H53.8957V17.2519ZM55.2817 15.3159C54.783 15.3159 54.365 15.1619 54.0277 14.8539C53.6903 14.5313 53.5217 14.1353 53.5217 13.6659C53.5217 13.1966 53.6903 12.8079 54.0277 12.4999C54.365 12.1773 54.783 12.0159 55.2817 12.0159C55.7803 12.0159 56.1983 12.1699 56.5357 12.4779C56.873 12.7713 57.0417 13.1453 57.0417 13.5999C57.0417 14.0839 56.873 14.4946 56.5357 14.8319C56.213 15.1546 55.795 15.3159 55.2817 15.3159Z" fill="#FBF5EB"/>
<path d="M65.645 29.1539C64.4277 29.1539 63.335 28.8973 62.367 28.3839C61.399 27.8706 60.6437 27.1593 60.101 26.2499C59.5584 25.3259 59.287 24.2846 59.287 23.1259C59.287 21.9673 59.5584 20.9333 60.101 20.0239C60.6437 19.1146 61.3917 18.4033 62.345 17.8899C63.313 17.3766 64.413 17.1199 65.645 17.1199C66.8037 17.1199 67.8157 17.3546 68.681 17.8239C69.561 18.2933 70.221 18.9679 70.661 19.8479L68.549 21.0799C68.2117 20.5373 67.7864 20.1339 67.273 19.8699C66.7744 19.5913 66.2244 19.4519 65.623 19.4519C64.5964 19.4519 63.7457 19.7893 63.071 20.4639C62.3964 21.1239 62.059 22.0113 62.059 23.1259C62.059 24.2406 62.389 25.1353 63.049 25.8099C63.7237 26.4699 64.5817 26.7999 65.623 26.7999C66.2244 26.7999 66.7744 26.6679 67.273 26.4039C67.7864 26.1253 68.2117 25.7146 68.549 25.1719L70.661 26.4039C70.2064 27.2839 69.539 27.9659 68.659 28.4499C67.7937 28.9193 66.789 29.1539 65.645 29.1539Z" fill="#FBF5EB"/>
<path d="M79.5968 17.1199C81.0782 17.1199 82.2662 17.5526 83.1608 18.4179C84.0555 19.2833 84.5028 20.5666 84.5028 22.2679V28.9999H81.7528V22.6199C81.7528 21.5933 81.5108 20.8233 81.0268 20.3099C80.5428 19.7819 79.8535 19.5179 78.9588 19.5179C77.9468 19.5179 77.1475 19.8259 76.5608 20.4419C75.9742 21.0433 75.6808 21.9159 75.6808 23.0599V28.9999H72.9308V12.6759H75.6808V18.6159C76.1355 18.1319 76.6928 17.7653 77.3528 17.5159C78.0275 17.2519 78.7755 17.1199 79.5968 17.1199Z" fill="#FBF5EB"/>
<path d="M102.819 17.1199C104.301 17.1199 105.474 17.5526 106.339 18.4179C107.205 19.2686 107.637 20.5519 107.637 22.2679V28.9999H104.887V22.6199C104.887 21.5933 104.66 20.8233 104.205 20.3099C103.751 19.7819 103.098 19.5179 102.247 19.5179C101.323 19.5179 100.583 19.8259 100.025 20.4419C99.468 21.0433 99.1894 21.9086 99.1894 23.0379V28.9999H96.4394V22.6199C96.4394 21.5933 96.212 20.8233 95.7574 20.3099C95.3027 19.7819 94.65 19.5179 93.7994 19.5179C92.8607 19.5179 92.1127 19.8186 91.5554 20.4199C91.0127 21.0213 90.7414 21.8939 90.7414 23.0379V28.9999H87.9914V17.2519H90.6094V18.7479C91.0494 18.2199 91.5994 17.8166 92.2594 17.5379C92.9194 17.2593 93.6527 17.1199 94.4594 17.1199C95.3394 17.1199 96.1167 17.2886 96.7914 17.6259C97.4807 17.9486 98.0234 18.4326 98.4194 19.0779C98.9034 18.4619 99.5267 17.9853 100.289 17.6479C101.052 17.2959 101.895 17.1199 102.819 17.1199Z" fill="#FBF5EB"/>
<path d="M115.64 17.1199C117.37 17.1199 118.69 17.5379 119.6 18.3739C120.524 19.1953 120.986 20.4419 120.986 22.1139V28.9999H118.39V27.5699C118.052 28.0833 117.568 28.4793 116.938 28.7579C116.322 29.0219 115.574 29.1539 114.694 29.1539C113.814 29.1539 113.044 29.0073 112.384 28.7139C111.724 28.4059 111.21 27.9879 110.844 27.4599C110.492 26.9173 110.316 26.3086 110.316 25.6339C110.316 24.5779 110.704 23.7346 111.482 23.1039C112.274 22.4586 113.513 22.1359 115.2 22.1359H118.236V21.9599C118.236 21.1386 117.986 20.5079 117.488 20.0679C117.004 19.6279 116.278 19.4079 115.31 19.4079C114.65 19.4079 113.997 19.5106 113.352 19.7159C112.721 19.9213 112.186 20.2073 111.746 20.5739L110.668 18.5719C111.284 18.1026 112.024 17.7433 112.89 17.4939C113.755 17.2446 114.672 17.1199 115.64 17.1199ZM115.266 27.1519C115.955 27.1519 116.564 26.9979 117.092 26.6899C117.634 26.3673 118.016 25.9126 118.236 25.3259V23.9619H115.398C113.814 23.9619 113.022 24.4826 113.022 25.5239C113.022 26.0226 113.22 26.4186 113.616 26.7119C114.012 27.0053 114.562 27.1519 115.266 27.1519Z" fill="#FBF5EB"/>
<path d="M131.181 17.1199C132.662 17.1199 133.85 17.5526 134.745 18.4179C135.639 19.2833 136.087 20.5666 136.087 22.2679V28.9999H133.337V22.6199C133.337 21.5933 133.095 20.8233 132.611 20.3099C132.127 19.7819 131.437 19.5179 130.543 19.5179C129.531 19.5179 128.731 19.8259 128.145 20.4419C127.558 21.0433 127.265 21.9159 127.265 23.0599V28.9999H124.515V17.2519H127.133V18.7699C127.587 18.2273 128.159 17.8166 128.849 17.5379C129.538 17.2593 130.315 17.1199 131.181 17.1199Z" fill="#FBF5EB"/>
<path d="M153.047 29.2199C151.493 29.2199 150.085 28.8826 148.823 28.2079C147.577 27.5186 146.594 26.5726 145.875 25.3699C145.171 24.1673 144.819 22.8106 144.819 21.2999C144.819 19.7893 145.179 18.4326 145.897 17.2299C146.616 16.0273 147.599 15.0886 148.845 14.4139C150.107 13.7246 151.515 13.3799 153.069 13.3799C154.331 13.3799 155.482 13.5999 156.523 14.0399C157.565 14.4799 158.445 15.1179 159.163 15.9539L157.315 17.6919C156.201 16.4893 154.829 15.8879 153.201 15.8879C152.145 15.8879 151.199 16.1226 150.363 16.5919C149.527 17.0466 148.875 17.6846 148.405 18.5059C147.936 19.3273 147.701 20.2586 147.701 21.2999C147.701 22.3413 147.936 23.2726 148.405 24.0939C148.875 24.9153 149.527 25.5606 150.363 26.0299C151.199 26.4846 152.145 26.7119 153.201 26.7119C154.829 26.7119 156.201 26.1033 157.315 24.8859L159.163 26.6459C158.445 27.4819 157.557 28.1199 156.501 28.5599C155.46 28.9999 154.309 29.2199 153.047 29.2199Z" fill="#FBF5EB"/>
<path d="M161.64 12.6759H164.39V28.9999H161.64V12.6759Z" fill="#FBF5EB"/>
<path d="M179.373 17.2519V28.9999H176.755V27.5039C176.315 28.0319 175.765 28.4426 175.105 28.7359C174.445 29.0146 173.734 29.1539 172.971 29.1539C171.402 29.1539 170.163 28.7213 169.253 27.8559C168.359 26.9759 167.911 25.6779 167.911 23.9619V17.2519H170.661V23.5879C170.661 24.6439 170.896 25.4359 171.365 25.9639C171.849 26.4773 172.531 26.7339 173.411 26.7339C174.394 26.7339 175.171 26.4333 175.743 25.8319C176.33 25.2159 176.623 24.3359 176.623 23.1919V17.2519H179.373Z" fill="#FBF5EB"/>
<path d="M189.486 17.1199C190.63 17.1199 191.649 17.3693 192.544 17.8679C193.453 18.3666 194.164 19.0706 194.678 19.9799C195.191 20.8893 195.448 21.9379 195.448 23.1259C195.448 24.3139 195.191 25.3699 194.678 26.2939C194.164 27.2033 193.453 27.9073 192.544 28.4059C191.649 28.9046 190.63 29.1539 189.486 29.1539C188.679 29.1539 187.938 29.0146 187.264 28.7359C186.604 28.4573 186.046 28.0393 185.592 27.4819V28.9999H182.974V12.6759H185.724V18.6819C186.193 18.1686 186.743 17.7799 187.374 17.5159C188.019 17.2519 188.723 17.1199 189.486 17.1199ZM189.178 26.7999C190.19 26.7999 191.018 26.4626 191.664 25.7879C192.324 25.1133 192.654 24.2259 192.654 23.1259C192.654 22.0259 192.324 21.1386 191.664 20.4639C191.018 19.7893 190.19 19.4519 189.178 19.4519C188.518 19.4519 187.924 19.6059 187.396 19.9139C186.868 20.2073 186.45 20.6326 186.142 21.1899C185.834 21.7473 185.68 22.3926 185.68 23.1259C185.68 23.8593 185.834 24.5046 186.142 25.0619C186.45 25.6193 186.868 26.0519 187.396 26.3599C187.924 26.6533 188.518 26.7999 189.178 26.7999Z" fill="#FBF5EB"/>
</svg>
